<svg width="100" height="61" viewBox="0 0 100 61" fill="none" xmlns="http://www.w3.org/2000/svg">
<path d="M1.04419 1.61914H93.3055V44.4141H1.04419V1.61914Z" fill="white"/>
<path d="M1.91992 2.48322V43.5494H92.4297V2.48322H1.91992Z" fill="white"/>
<path d="M60.9371 8.22882C48.4432 8.22882 38.3208 18.0588 38.3208 30.186C38.3192 35.0348 39.9677 39.7427 43.0001 43.5494H78.8764C81.8958 39.7573 83.543 35.0714 83.5545 30.242C83.5545 29.7837 83.5411 29.328 83.5144 28.8751C82.8166 17.3584 72.9771 8.22882 60.9371 8.22882Z" fill="#F0EFF7"/>
<path d="M83.4968 28.8799C82.8014 17.3655 72.9595 8.23706 60.9371 8.23706C48.4503 8.23706 38.3291 18.0635 38.3291 30.1826C38.3255 35.0324 39.9733 39.7417 43.0061 43.5495H78.8529C81.8743 39.7582 83.5229 35.072 83.5345 30.2421C83.5369 29.783 83.5243 29.3289 83.4968 28.8799Z" fill="#EEEDF6"/>
<path d="M83.4779 28.8844C82.786 17.3724 72.9512 8.24512 60.9218 8.24512C48.4397 8.24512 38.322 18.0669 38.322 30.1906C38.3216 35.0388 39.9723 39.7454 43.0072 43.5494H78.8387C81.8571 39.7612 83.5045 35.0793 83.5168 30.2537C83.5184 29.793 83.5054 29.3366 83.4779 28.8844Z" fill="#EDECF5"/>
<path d="M83.4602 28.8892C82.7707 17.3794 72.9382 8.25336 60.9111 8.25336C48.4338 8.25336 38.3208 18.0716 38.3208 30.1849C38.319 35.0354 39.9707 39.7445 43.0084 43.5495H78.8115C81.8332 39.7625 83.4835 35.0804 83.4979 30.2537C83.4991 29.7962 83.4861 29.3421 83.4602 28.8892Z" fill="#ECEAF3"/>
<path d="M83.4413 28.8951C82.7553 17.3877 72.9252 8.2616 60.9016 8.2616C48.429 8.2616 38.3184 18.0764 38.3184 30.1849C38.3172 35.0362 39.9706 39.7456 43.0106 43.5495H78.7902C81.812 39.7647 83.4631 35.0847 83.479 30.2597C83.4813 29.8013 83.4688 29.3464 83.4413 28.8951Z" fill="#EAE9F2"/>
<path d="M83.4226 28.8996C82.7425 17.3946 72.9136 8.26965 60.8912 8.26965C48.4233 8.26965 38.3174 18.0809 38.3174 30.1848C38.3155 35.0366 39.97 39.7464 43.012 43.5494H78.7692C81.7918 39.7667 83.4438 35.0881 83.4603 30.2642C83.4627 29.8066 83.4501 29.3518 83.4226 28.8996Z" fill="#E9E8F1"/>
<path d="M83.4049 28.9042C82.7236 17.4015 72.9006 8.27661 60.8817 8.27661C48.4185 8.27661 38.3162 18.0821 38.3162 30.1836C38.3144 35.0361 39.9697 39.7465 43.0132 43.5494H78.748C81.7707 39.7683 83.4236 35.0914 83.4414 30.2688C83.4469 29.8112 83.4347 29.3564 83.4049 28.9042Z" fill="#E8E6EF"/>
<path d="M83.386 28.9101C82.7082 17.4133 72.8876 8.28485 60.871 8.28485C48.4125 8.28485 38.3137 18.0903 38.3137 30.1837C38.3124 35.0367 39.9691 39.7473 43.0142 43.5494H78.7279C81.7518 39.7706 83.4059 35.0952 83.4248 30.2736C83.4256 29.816 83.4127 29.3615 83.386 28.9101Z" fill="#E6E5EE"/>
<path d="M83.367 28.9149C82.6928 17.4157 72.8769 8.29309 60.8616 8.29309C48.4078 8.29309 38.3125 18.0985 38.3125 30.1837C38.3126 35.0379 39.9723 39.7489 43.0213 43.5495H78.7042C81.7286 39.7725 83.384 35.0987 83.4048 30.2783C83.4063 29.8207 83.3938 29.3662 83.367 28.9149Z" fill="#E5E3ED"/>
<path d="M83.3494 28.9194C82.6776 17.4225 72.8593 8.30115 60.851 8.30115C48.4019 8.30115 38.3066 18.0973 38.3066 30.1836C38.3078 35.0386 39.9697 39.7499 43.0213 43.5494H78.6878C81.7124 39.7742 83.3687 35.1021 83.3907 30.2829C83.3891 29.8253 83.3753 29.3708 83.3494 28.9194Z" fill="#E4E2EC"/>
<path d="M83.3317 28.9252C82.6611 17.4295 72.8487 8.30811 60.8404 8.30811C48.3972 8.30811 38.3066 18.1019 38.3066 30.1824C38.3075 35.0377 39.9694 39.7495 43.0213 43.5494H78.6618C81.6864 39.7758 83.3435 35.1054 83.3671 30.2875C83.3694 29.8315 83.3576 29.3774 83.3317 28.9252Z" fill="#E3E1EB"/>
<path d="M83.3128 28.9301C82.6457 17.4379 72.8416 8.31769 60.831 8.31769C48.3913 8.31769 38.3066 18.1068 38.3066 30.1827C38.3065 35.0382 39.9685 39.7503 43.0213 43.5496H78.6406C81.6664 39.7783 83.3244 35.1092 83.3482 30.2924C83.3506 29.8356 83.3388 29.3815 83.3128 28.9301Z" fill="#E1E0EA"/>
<path d="M83.294 28.9358C82.6304 17.4447 72.8227 8.32568 60.8192 8.32568C48.3842 8.32568 38.3066 18.1101 38.3066 30.1825C38.3054 35.0382 39.9675 39.7506 43.0213 43.5494H78.617C81.6446 39.7809 83.3051 35.1138 83.3317 30.2981C83.3317 29.8405 83.3191 29.3864 83.294 28.9358Z" fill="#E0DEE9"/>
<path d="M83.2751 28.9404C82.6151 17.4517 72.8098 8.33264 60.8109 8.33264C48.3807 8.33264 38.3066 18.1136 38.3066 30.1824C38.3047 35.0382 39.9669 39.7509 43.0213 43.5494H78.5982C81.6252 39.7824 83.2857 35.1169 83.3129 30.3027C83.3136 29.8451 83.3011 29.391 83.2751 28.9404Z" fill="#DFDDE8"/>
<path d="M83.2575 28.9452C82.5998 17.4588 72.7968 8.34088 60.8003 8.34088C48.3748 8.34088 38.3066 18.1195 38.3066 30.1814C38.304 35.0376 39.9663 39.7509 43.0213 43.5494H78.577C81.6033 39.7839 83.2638 35.1201 83.2917 30.3074C83.294 29.8498 83.2822 29.3969 83.2575 28.9452Z" fill="#DDDCE7"/>
<path d="M83.2387 28.9511C82.5833 17.4658 72.7839 8.34912 60.791 8.34912C48.3702 8.34912 38.302 18.123 38.302 30.1779C38.2989 35.0361 39.9631 39.7511 43.0214 43.5495H78.5546C81.5814 39.7859 83.242 35.1235 83.2693 30.3122C83.2756 29.8546 83.2654 29.4009 83.2387 28.9511Z" fill="#DCDBE6"/>
<path d="M83.2198 28.9556C82.568 17.4727 72.7709 8.35718 60.7803 8.35718C48.3642 8.35718 38.3008 18.1276 38.3008 30.186C38.2994 35.0416 39.9639 39.7536 43.0213 43.5494H78.5334C81.5617 39.7881 83.2244 35.1273 83.2539 30.3167C83.2579 29.8607 83.2465 29.407 83.2198 28.9556Z" fill="#DBD9E5"/>
<path d="M83.2021 28.9604C82.5526 17.4798 72.7579 8.36542 60.7708 8.36542C48.3595 8.36542 38.2996 18.1323 38.2996 30.1814C38.2981 35.0396 39.9652 39.7539 43.0272 43.5495H78.5121C81.5406 39.7899 83.2041 35.1307 83.2351 30.3215C83.239 29.8646 83.228 29.4109 83.2021 28.9604Z" fill="#DAD8E4"/>
<path d="M83.1833 28.9696C82.5374 17.4867 72.7451 8.37347 60.7604 8.37347C48.3537 8.37347 38.2974 18.1357 38.2974 30.1801C38.2956 35.0393 39.9641 39.7544 43.0285 43.5493H78.4911C81.5189 39.7912 83.1824 35.1337 83.214 30.326C83.2187 29.87 83.2085 29.4178 83.1833 28.9696Z" fill="#D9D7E3"/>
<path d="M83.1644 28.9697C82.5221 17.4949 72.7321 8.38171 60.7509 8.38171C48.349 8.38171 38.2961 18.1405 38.2961 30.1802C38.2946 35.0397 39.9641 39.755 43.0297 43.5494H78.4698C81.4989 39.7934 83.1645 35.1376 83.1986 30.3307C83.201 29.8747 83.1896 29.421 83.1644 28.9697Z" fill="#D7D6E2"/>
<path d="M83.1467 28.9754C82.5067 17.5019 72.7238 8.38867 60.7403 8.38867C48.3431 8.38867 38.2949 18.1451 38.2949 30.1801C38.2934 35.0401 39.9638 39.7555 43.0308 43.5494H78.4486C81.4779 39.7952 83.1443 35.141 83.1797 30.3354C83.1821 29.8786 83.1711 29.4252 83.1467 28.9754Z" fill="#D6D5E1"/>
<path d="M83.1279 28.9813C82.4902 17.509 72.7061 8.39691 60.7332 8.39691C48.3407 8.39691 38.2949 18.1487 38.2949 30.1802C38.2923 35.0405 39.9632 39.7565 43.032 43.5494H78.4274C81.4574 39.7972 83.1247 35.1446 83.1609 30.3401C83.1648 29.8849 83.1538 29.4319 83.1279 28.9813Z" fill="#D5D3E0"/>
<path d="M83.1101 28.9861C82.4748 17.5161 72.6931 8.40521 60.7155 8.40521C48.3277 8.40521 38.2866 18.1535 38.2866 30.1791C38.2864 35.041 39.9607 39.7576 43.0331 43.5496H78.4049C81.4361 39.7996 83.1047 35.1483 83.1419 30.3449C83.1459 29.8896 83.1353 29.4367 83.1101 28.9861Z" fill="#D4D2DF"/>
<path d="M83.0961 28.9906C82.4596 17.5229 72.6802 8.41321 60.7109 8.41321C48.3255 8.41321 38.2903 18.158 38.2903 30.179C38.2887 35.0407 39.9623 39.7574 43.0344 43.5494H78.3814C81.4128 39.8011 83.0822 35.1516 83.1209 30.3494C83.1264 29.8965 83.1181 29.4436 83.0961 28.9906Z" fill="#D3D1DE"/>
<path d="M83.0725 28.9963C82.4443 17.5298 72.6673 8.42474 60.7014 8.42474C48.3254 8.42474 38.2903 18.1648 38.2903 30.1823C38.2893 35.0431 39.9633 39.7586 43.0356 43.5493H78.3626C81.3946 39.8048 83.065 35.1582 83.1044 30.3586C83.1079 29.9033 83.0961 29.4469 83.0725 28.9963Z" fill="#D2D0DE"/>
<path d="M83.0547 29.001C82.4277 17.5368 72.6542 8.42474 60.6907 8.42474C48.3147 8.42474 38.2866 18.1613 38.2866 30.1742C38.2851 35.0369 39.961 39.7542 43.0366 43.5446H78.3412C81.3741 39.8004 83.0453 35.1538 83.0854 30.3539C83.0889 29.9033 83.0783 29.4516 83.0547 29.001Z" fill="#D1CFDD"/>
<path d="M83.0358 29.007C82.4123 17.5451 72.6412 8.43774 60.6801 8.43774C48.3111 8.43774 38.2854 18.1708 38.2854 30.1778C38.2839 35.0413 39.9607 39.7592 43.0378 43.5494H78.32C81.3512 39.8087 83.0231 35.1666 83.0665 30.3704C83.0712 29.9113 83.061 29.4568 83.0358 29.007Z" fill="#D0CEDC"/>
<path d="M83.0181 29.0116C82.397 17.5521 72.6294 8.4447 60.6694 8.4447C48.3064 8.4447 38.2842 18.1743 38.2842 30.1778C38.2828 35.0416 39.9605 39.7597 43.0389 43.5494H78.2988C81.3322 39.8097 83.0051 35.1671 83.0476 30.3704C83.0523 29.914 83.0417 29.461 83.0181 29.0116Z" fill="#CFCDDB"/>
<path d="M82.9994 29.0164C82.3818 17.5592 72.6166 8.45294 60.6602 8.45294C48.3007 8.45294 38.282 18.179 38.282 30.1778C38.2805 35.0423 39.9596 39.7608 43.0403 43.5494H78.2824C81.3152 39.8096 82.9873 35.1669 83.0289 30.3705C83.0336 29.9175 83.0238 29.4662 82.9994 29.0164Z" fill="#CECCDA"/>
<path d="M82.9781 29.0221C82.364 17.5661 72.6058 8.461 60.647 8.461C48.2923 8.461 38.2783 18.1836 38.2783 30.1731C38.2765 35.0398 39.9574 39.7604 43.0413 43.5493H78.2551C81.2899 39.8132 82.965 35.1733 83.0099 30.3785C83.0146 29.9233 83.004 29.4711 82.9781 29.0221Z" fill="#CCCBD9"/>
<path d="M82.9628 29.0268C82.3499 17.5731 72.5905 8.46924 60.64 8.46924C48.29 8.46924 38.2795 18.1871 38.2795 30.1813C38.279 35.0455 39.9603 39.7632 43.0437 43.5494H78.234C81.2688 39.8149 82.945 35.1768 82.9922 30.3833C82.9962 29.928 82.9863 29.4759 82.9628 29.0268Z" fill="#CBC9D8"/>
<path d="M82.9439 29.0316C82.3345 17.5803 72.5716 8.47754 60.6294 8.47754C48.284 8.47754 38.2783 18.1919 38.2783 30.1768C38.2764 35.043 39.9587 39.7629 43.0449 43.5495H78.2127C81.2501 39.8177 82.9289 35.181 82.9781 30.388C82.9781 29.934 82.9675 29.4822 82.9439 29.0316Z" fill="#CAC8D8"/>
<path d="M82.9252 29.0373C82.3194 17.5871 72.5647 8.48553 60.6201 8.48553C48.2795 8.48553 38.2761 18.1964 38.2761 30.1766C38.2745 35.0434 39.9582 39.7635 43.0462 43.5494H78.1917C81.2274 39.8186 82.9053 35.1837 82.9547 30.3925C82.9594 29.9385 82.9488 29.4867 82.9252 29.0373Z" fill="#C9C7D7"/>
<path d="M82.9075 29.0422C82.304 17.5956 72.5517 8.4975 60.6095 8.4975C48.2735 8.4975 38.2749 18.2037 38.2749 30.1804C38.2743 35.0463 39.9588 39.7653 43.0473 43.5496H78.1716C81.2077 39.8207 82.8865 35.1874 82.937 30.3975C82.9409 29.9438 82.9311 29.492 82.9075 29.0422Z" fill="#C8C6D6"/>
<path d="M82.8886 29.0468C82.2886 17.6071 72.5387 8.50208 60.6 8.50208C48.2688 8.50208 38.2737 18.206 38.2737 30.1768C38.2724 35.0443 39.9579 39.7648 43.0485 43.5495H78.1456C81.1824 39.8227 82.862 35.1908 82.9133 30.4021C82.9204 29.9484 82.9121 29.4966 82.8886 29.0468Z" fill="#C7C5D5"/>
<path d="M82.8698 29.0524C82.2722 17.6127 72.5258 8.50769 60.593 8.50769C48.2665 8.50769 38.2749 18.2081 38.2749 30.1742C38.2721 35.0427 39.9577 39.7645 43.0497 43.5493H78.128C81.1648 39.8241 82.8453 35.194 82.898 30.4065C82.9028 29.9524 82.8933 29.5019 82.8698 29.0524Z" fill="#C6C4D4"/>
<path d="M82.852 29.0573C82.2626 17.6176 72.5127 8.51251 60.5752 8.51251C48.2534 8.51251 38.2654 18.2082 38.2654 30.1709C38.2642 35.0419 39.9537 39.7654 43.0508 43.5495H78.1067C81.1437 39.826 82.825 35.1976 82.8791 30.4113C82.8838 29.9584 82.8748 29.5071 82.852 29.0573Z" fill="#C5C3D4"/>
<path d="M82.8333 29.0619C82.2439 17.6222 72.4999 8.52533 60.5694 8.52533C48.2524 8.52533 38.269 18.214 38.269 30.1755C38.2679 35.0448 39.9565 39.7665 43.0521 43.5495H78.0844C81.1231 39.8285 82.8057 35.2013 82.8604 30.416C82.8666 29.9631 82.8576 29.5117 82.8333 29.0619Z" fill="#C4C2D3"/>
<path d="M82.8155 29.0678C82.2261 17.6281 72.4868 8.53357 60.5587 8.53357C48.2475 8.53357 38.2666 18.2223 38.2666 30.1744C38.2651 35.0447 39.9552 39.7672 43.0532 43.5495H78.0596C81.0985 39.8304 82.782 35.2048 82.8379 30.4207C82.8473 29.9678 82.8379 29.5172 82.8155 29.0678Z" fill="#C3C1D2"/>
<path d="M82.7966 29.0723C82.2072 17.6326 72.4738 8.54156 60.5492 8.54156C48.2416 8.54156 38.2654 18.2303 38.2654 30.1743C38.264 35.0449 39.9549 39.7677 43.0543 43.5494H78.0418C81.0815 39.8327 82.7659 35.209 82.8225 30.4264C82.8284 29.9723 82.819 29.5217 82.7966 29.0723Z" fill="#C2C0D1"/>
<path d="M82.7779 29.0781C82.1944 17.6384 72.461 8.54852 60.5388 8.54852C48.237 8.54852 38.262 18.2302 38.262 30.1742C38.2613 35.0455 39.954 39.7685 43.0556 43.5493H78.0208C81.0609 39.8346 82.7462 35.2124 82.8038 30.431C82.8101 29.9773 82.8014 29.5263 82.7779 29.0781Z" fill="#C1BFD0"/>
<path d="M82.7602 29.0866C82.1791 17.6562 72.448 8.56049 60.5294 8.56049C48.2312 8.55698 38.2632 18.2305 38.2632 30.1745C38.2614 35.046 39.9542 39.7694 43.0568 43.5496H77.9996C81.0394 39.8362 82.7258 35.216 82.7861 30.436C82.7908 29.9831 82.7826 29.5313 82.7602 29.0866Z" fill="#C0BED0"/>
<path d="M82.7425 29.0863C82.165 17.6583 72.4362 8.56372 60.5199 8.56372C48.2264 8.56372 38.262 18.2384 38.262 30.1731C38.2609 35.045 39.955 39.7686 43.0591 43.5482H77.9783C81.0189 39.8368 82.7062 35.2181 82.7673 30.4392C82.772 29.9871 82.7637 29.5361 82.7425 29.0863Z" fill="#BFBDCF"/>
<path d="M82.7224 29.0933C82.1531 17.6665 72.422 8.57306 60.5092 8.57306C48.2204 8.57306 38.2595 18.2431 38.2595 30.1684C38.257 35.043 39.9526 39.7692 43.0602 43.5493H77.9558C80.9978 39.8404 82.6864 35.223 82.7483 30.4451C82.7546 29.9921 82.7459 29.5416 82.7224 29.0933Z" fill="#BEBCCE"/>
<path d="M82.7047 29.0981C82.133 17.6736 72.409 8.58136 60.4986 8.58136C48.2145 8.58136 38.2583 18.2479 38.2583 30.1767C38.2578 35.0489 39.9542 39.7721 43.0614 43.5495H77.9346C80.9767 39.8422 82.6662 35.2265 82.7294 30.4498C82.7381 29.9969 82.7298 29.5463 82.7047 29.0981Z" fill="#BDBBCD"/>
<path d="M82.6857 29.1028C82.1164 17.6807 72.3959 8.5896 60.489 8.5896C48.2097 8.5896 38.2559 18.2526 38.2559 30.1733C38.2544 35.0472 39.9523 39.7722 43.0625 43.5495H77.9097C80.952 39.844 82.6423 35.23 82.7069 30.4546C82.7163 30.0017 82.7081 29.5534 82.6857 29.1028Z" fill="#BCBACD"/>
<path d="M82.6682 29.1086C82.1013 17.6875 72.3832 8.59766 60.4787 8.59766C48.204 8.59766 38.2549 18.256 38.2549 30.1731C38.2537 35.0475 39.9525 39.7726 43.0638 43.5494H77.8923C80.9348 39.8457 82.626 35.2333 82.6918 30.4591C82.6981 30.0109 82.6902 29.5607 82.6682 29.1086Z" fill="#BBB9CC"/>
<path d="M82.6495 29.1131C82.0861 17.6944 72.3703 8.60455 60.4658 8.60455C48.1958 8.60455 38.2502 18.2606 38.2502 30.1719C38.2488 35.047 39.9485 39.7728 43.0616 43.5493H77.8676C80.9108 39.8476 82.6028 35.2367 82.6695 30.4637C82.6789 30.0119 82.6718 29.5614 82.6495 29.1131Z" fill="#BAB8CB"/>
<path d="M82.6304 29.1179C82.0706 17.7027 72.3584 8.61285 60.4585 8.61285C48.1933 8.61285 38.2524 18.2654 38.2524 30.172C38.2504 35.0476 39.9511 39.7739 43.0661 43.5494H77.8498C80.8932 39.8495 82.5861 35.2403 82.654 30.4685C82.6611 30.0202 82.6528 29.5673 82.6304 29.1179Z" fill="#B9B7CA"/>
<path d="M82.6128 29.1238C82.0553 17.7098 72.3454 8.62109 60.4539 8.62109C48.1958 8.62109 38.2549 18.269 38.2549 30.1721C38.2539 35.0481 39.9558 39.7745 43.0721 43.5495H77.8286C80.8719 39.8521 82.5656 35.2453 82.6352 30.4756C82.6423 30.0203 82.634 29.5721 82.6128 29.1238Z" fill="#B8B6CA"/>
<path d="M82.594 29.1284C82.0353 17.7167 72.3325 8.62915 60.4386 8.62915C48.1805 8.62915 38.249 18.2735 38.249 30.172C38.2479 35.0484 39.9508 39.7751 43.0686 43.5494H77.8063C80.8521 39.8531 82.5472 35.2459 82.6164 30.4755C82.6247 30.026 82.6152 29.5766 82.594 29.1284Z" fill="#B7B5C9"/>
<path d="M82.5751 29.1343C82.0235 17.7238 72.3207 8.63739 60.4291 8.63739C48.1781 8.63739 38.2478 18.2782 38.2478 30.1709C38.246 35.0482 39.9499 39.7756 43.0697 43.5494H77.785C80.8296 39.8568 82.5254 35.254 82.5975 30.4872C82.6046 30.0319 82.5975 29.5814 82.5751 29.1343Z" fill="#B6B4C8"/>
<path d="M82.5573 29.139C82.0081 17.7308 72.3029 8.64563 60.4184 8.64563C48.1721 8.64563 38.2454 18.2818 38.2454 30.1709C38.2441 35.0488 39.9493 39.7764 43.0708 43.5495H77.7637C80.8092 39.8572 82.5062 35.2544 82.5797 30.4873C82.586 30.0367 82.5786 29.5873 82.5573 29.139Z" fill="#B5B3C7"/>
<path d="M82.5386 29.1434C81.9929 17.7376 72.2936 8.6582 60.408 8.6582C48.1675 8.6582 38.249 18.2909 38.249 30.1753C38.2493 35.0541 39.9571 39.782 43.0816 43.5539H77.7426C80.7891 39.8643 82.4871 35.2632 82.561 30.4975C82.5673 30.043 82.5598 29.5917 82.5386 29.1434Z" fill="#B4B2C7"/>
<path d="M82.5208 29.1493C81.9775 17.7446 72.2806 8.6582 60.3984 8.6582C48.1615 8.6582 38.2395 18.2886 38.2395 30.1683C38.2386 35.0473 39.9465 39.7756 43.072 43.5469H77.7248C80.7718 39.8592 82.4707 35.2597 82.5456 30.4952C82.5491 30.0458 82.5409 29.5963 82.5208 29.1493Z" fill="#B3B1C6"/>
<path d="M82.5067 29.1541C81.9657 17.7529 72.2723 8.66888 60.3926 8.66888C48.1604 8.66888 38.2466 18.2946 38.2466 30.1697C38.2445 35.0492 39.9525 39.7782 43.0791 43.5494H77.7001C80.747 39.8633 82.4466 35.2655 82.5232 30.5023C82.5303 30.0506 82.5232 29.6023 82.5067 29.1541Z" fill="#B2B0C5"/>
<path d="M82.4831 29.1588C81.9457 17.7635 72.2523 8.67712 60.3784 8.67712C48.1509 8.67712 38.2395 18.2993 38.2395 30.1697C38.2369 35.0494 39.945 39.7785 43.072 43.5495H77.6742C80.7243 39.8663 82.4274 35.2699 82.5067 30.5071C82.5122 30.0565 82.5043 29.6071 82.4831 29.1588Z" fill="#B1AFC4"/>
<path d="M82.4654 29.1646C81.9303 17.7634 72.2416 8.68518 60.3677 8.68518C48.145 8.68518 38.2383 18.3039 38.2383 30.1696C38.2373 35.0502 39.948 39.7796 43.0779 43.5494H77.6564C80.7065 39.868 82.4096 35.2731 82.489 30.5116C82.4937 30.0611 82.4858 29.612 82.4654 29.1646Z" fill="#B0AEC4"/>
<path d="M82.4467 29.1693C81.9175 17.774 72.2289 8.69342 60.3585 8.69342C48.1405 8.69342 38.2373 18.3074 38.2373 30.172C38.2361 35.0523 39.9478 39.7813 43.0793 43.5494H77.6354C80.6847 39.8694 82.3878 35.2762 82.468 30.5164C82.4739 30.0658 82.468 29.6164 82.4467 29.1693Z" fill="#AFADC3"/>
<path d="M82.4278 29.174C81.8998 17.781 72.2158 8.70166 60.3478 8.70166C48.1345 8.70166 38.2349 18.3122 38.2349 30.1686C38.2337 35.0506 39.9467 39.781 43.0804 43.5495H77.6153C80.6646 39.8713 82.3678 35.2796 82.4478 30.5211C82.4561 30.0705 82.449 29.6223 82.4278 29.174Z" fill="#AEACC2"/>
<path d="M82.4101 29.1798C81.8832 17.7879 72.2028 8.70972 60.3384 8.70972C48.1297 8.70972 38.2336 18.3167 38.2336 30.1685C38.2325 35.0508 39.9464 39.7815 43.0815 43.5494H77.5929C80.6414 39.8726 82.3445 35.2826 82.4254 30.5257C82.4372 30.0751 82.4301 29.6268 82.4101 29.1798Z" fill="#ADABC1"/>
<path d="M82.3888 29.1844C81.8678 17.7949 72.1898 8.71667 60.3277 8.71667C48.1238 8.71667 38.2324 18.3202 38.2324 30.1684C38.2308 35.0513 39.9457 39.7824 43.0826 43.5494H77.5716C80.6195 39.874 82.3226 35.2857 82.4041 30.5303C82.4183 30.0797 82.4112 29.6315 82.3888 29.1844Z" fill="#ADAAC1"/>
<path d="M82.3734 29.1891C81.8524 17.8031 72.1768 8.72491 60.3182 8.72491C48.119 8.72491 38.23 18.3249 38.23 30.1685C38.2287 35.0519 39.9449 39.7833 43.0837 43.5494H77.5562C80.604 39.8758 82.3071 35.289 82.3887 30.535C82.3993 30.0856 82.3887 29.6362 82.3734 29.1891Z" fill="#ACA9C0"/>
<path d="M82.3547 29.195C81.8373 17.8102 72.164 8.73315 60.3137 8.73315C48.1192 8.73315 38.2349 18.3297 38.2349 30.1674C38.2339 35.0515 39.951 39.7833 43.091 43.5495H77.5293C80.58 39.8785 82.2873 35.2935 82.3736 30.5398C82.3838 30.0907 82.3775 29.6425 82.3547 29.195Z" fill="#ABA8BF"/>
<path d="M82.3357 29.2032C81.8218 17.8207 72.1509 8.74487 60.2946 8.74487C48.1049 8.74487 38.2241 18.3367 38.2241 30.1709C38.2244 35.0548 39.9437 39.7857 43.0861 43.5495H77.5032C80.5551 39.8808 82.2637 35.2972 82.351 30.5445C82.3628 30.0951 82.3558 29.6468 82.3357 29.2032Z" fill="#AAA8BE"/>
<path d="M82.3181 29.2031C81.8054 17.8242 72.1344 8.74945 60.2877 8.74945C48.1026 8.74945 38.2266 18.3378 38.2266 30.1674C38.2251 35.0523 39.9441 39.7849 43.0874 43.5495H77.4856C80.538 39.883 82.2474 35.3014 82.3358 30.5502C82.3444 30.0996 82.3386 29.6506 82.3181 29.2031Z" fill="#A9A7BE"/>
<path d="M82.2992 29.2102C81.79 17.8312 72.1249 8.75769 60.2781 8.75769C48.0978 8.75769 38.2241 18.3472 38.2241 30.1674C38.2231 35.0529 39.9435 39.7856 43.0885 43.5495H77.4643C80.5174 39.8852 82.2278 35.305 82.3168 30.555C82.3251 30.1044 82.3192 29.6573 82.2992 29.2102Z" fill="#A8A6BD"/>
<path d="M82.2804 29.2148C81.7747 17.8382 72.112 8.76465 60.2676 8.76465C48.092 8.76465 38.2266 18.3471 38.2266 30.1662C38.2253 35.0527 39.9471 39.7863 43.0945 43.5495H77.4384C80.4917 39.8869 82.2029 35.3083 82.2934 30.5596C82.3044 30.1106 82.3 29.6623 82.2804 29.2148Z" fill="#A7A5BC"/>
<path d="M82.2629 29.2206C81.7596 17.8451 72.1004 8.77509 60.2584 8.77509C48.0874 8.77509 38.2173 18.3529 38.2173 30.1685C38.2177 35.0552 39.942 39.7882 43.0923 43.5494H77.4221C80.4757 39.8886 82.1878 35.3117 82.2794 30.5642C82.288 30.1152 82.2825 29.6673 82.2629 29.2206Z" fill="#A6A4BC"/>
<path d="M82.2439 29.2253C81.7441 17.8522 72.0873 8.78094 60.2476 8.78094C48.0814 8.78094 38.2195 18.3529 38.2195 30.1662C38.2184 35.0536 39.9424 39.7878 43.0933 43.5494H77.4007C80.4547 39.8905 82.1676 35.3152 82.2604 30.5689C82.271 30.1195 82.2639 29.67 82.2439 29.2253Z" fill="#A5A3BB"/>
<path d="M82.2261 29.23C81.7276 17.8604 72.0743 8.78918 60.2369 8.78918C48.0754 8.78918 38.2183 18.3612 38.2183 30.1662C38.2174 35.0541 39.9423 39.7884 43.0944 43.5495H77.3795C80.4339 39.8925 82.1476 35.3187 82.2415 30.5736C82.2509 30.1242 82.245 29.6771 82.2261 29.23Z" fill="#A4A2BA"/>
<path d="M82.2073 29.2358C81.7123 17.8673 72.0614 8.79724 60.2299 8.79724C48.0731 8.79724 38.2195 18.3634 38.2195 30.1649C38.2172 35.0534 39.9423 39.7885 43.0956 43.5494H77.3571C80.4124 39.8944 82.1275 35.3222 82.2226 30.5782C82.2321 30.1288 82.2262 29.6817 82.2073 29.2358Z" fill="#A4A1B9"/>
<path d="M82.1884 29.2405C81.6969 17.8744 72.0518 8.80548 60.2168 8.80548C48.0648 8.80548 38.2158 18.3681 38.2158 30.1674C38.2148 35.0557 39.9416 39.7902 43.0967 43.5494H77.3358C80.392 39.8966 82.1079 35.3258 82.2037 30.5829C82.2131 30.137 82.2072 29.6864 82.1884 29.2405Z" fill="#A3A0B9"/>
<path d="M82.1708 29.2453C81.6817 17.8815 72.0343 8.81726 60.2076 8.81726C48.0602 8.81726 38.2136 18.3764 38.2136 30.1686C38.2134 35.0571 39.9415 39.7913 43.098 43.5496H77.3206C80.3761 39.8998 82.0928 35.3324 82.1909 30.5924C82.1964 30.141 82.1897 29.692 82.1708 29.2453Z" fill="#A29FB8"/>
<path d="M82.1531 29.2511C81.6675 17.8885 72.0237 8.82312 60.1981 8.82312C48.0579 8.82312 38.2136 18.3776 38.2136 30.1663C38.212 35.0559 39.9407 39.7915 43.0992 43.5496H77.2935C80.35 39.9001 82.0679 35.3328 82.1673 30.5924C82.1759 30.1441 82.1712 29.697 82.1531 29.2511Z" fill="#A19EB7"/>
<path d="M82.133 29.2557C81.6497 17.8953 72.0094 8.82764 60.1874 8.82764C48.0472 8.82764 38.2112 18.3798 38.2112 30.1627C38.2094 35.054 39.9395 39.791 43.1003 43.5494H77.2722C80.3305 39.9008 82.0494 35.3332 82.1483 30.5922C82.153 30.1486 82.153 29.7016 82.133 29.2557Z" fill="#A09EB7"/>
<path d="M82.1153 29.2613C81.6344 17.9021 71.9964 8.83325 60.1767 8.83325C48.0435 8.83325 38.2087 18.3819 38.2087 30.1601C38.2065 35.0528 39.938 39.7911 43.1014 43.5492H77.2509C80.3078 39.9042 82.0274 35.3409 82.1294 30.6037C82.1388 30.1531 82.1341 29.7072 82.1153 29.2613Z" fill="#9F9DB6"/>
<path d="M82.0966 29.2662C81.6251 17.9094 71.9836 8.84521 60.1734 8.84521C48.0449 8.84521 38.2136 18.3892 38.2136 30.1639C38.2112 35.0549 39.9414 39.7918 43.1027 43.5495H77.2298C80.2881 39.9051 82.0086 35.3416 82.1107 30.604C82.1201 30.1581 82.1154 29.7121 82.0966 29.2662Z" fill="#9E9CB5"/>
<path d="M82.0789 29.2708C81.6074 17.9175 71.9706 8.85327 60.1556 8.85327C48.0319 8.85327 38.2053 18.3937 38.2053 30.1638C38.2043 35.0562 39.938 39.7937 43.1039 43.5494H77.2027C80.2615 39.9082 81.9834 35.3475 82.0871 30.612C82.0997 30.1638 82.0969 29.7167 82.0789 29.2708Z" fill="#9D9BB5"/>
<path d="M82.0599 29.2767C81.5885 17.9245 71.9576 8.86151 60.1473 8.86151C48.0283 8.86151 38.2041 18.3985 38.2041 30.1627C38.2032 35.0559 39.9378 39.7939 43.105 43.5494H77.1861C80.2452 39.9101 81.9679 35.351 82.0729 30.6168C82.0823 30.1685 82.0788 29.7214 82.0599 29.2767Z" fill="#9C9AB4"/>
<path d="M82.041 29.2812C81.5696 17.9314 71.9446 8.86957 60.1367 8.86957C48.0224 8.86957 38.2029 18.4019 38.2029 30.1626C38.2019 35.0564 39.9379 39.7948 43.1073 43.5493H77.1649C80.2241 39.9117 81.9477 35.3543 82.054 30.6213C82.0634 30.1731 82.0599 29.7272 82.041 29.2812Z" fill="#9C99B3"/>
<path d="M82.0234 29.286C81.5519 17.9386 71.9316 8.87671 60.1273 8.87671C48.0177 8.87671 38.2041 18.4067 38.2041 30.1627C38.2018 35.0567 39.938 39.7956 43.1085 43.5495H77.1437C80.2042 39.9142 81.9287 35.3581 82.0352 30.6261C82.0458 30.1779 82.0411 29.732 82.0234 29.286Z" fill="#9B98B3"/>
<path d="M82.0045 29.2918C81.5413 17.9455 71.9186 8.88477 60.1119 8.88477C48.007 8.88477 38.1958 18.4112 38.1958 30.1626C38.1958 35.0579 39.9353 39.797 43.1097 43.5494H77.1224C80.1831 39.9158 81.9084 35.3614 82.0163 30.6307C82.0269 30.1836 82.0222 29.7365 82.0045 29.2918Z" fill="#9A97B2"/>
<path d="M81.9856 29.2964C81.5259 17.9524 71.9057 8.89172 60.1119 8.89172C48.0106 8.89172 38.2029 18.4135 38.2029 30.1602C38.2002 35.0556 39.9378 39.7957 43.1109 43.5493H77.1012C80.1623 39.9177 81.8885 35.3648 81.9974 30.6353C82.0084 30.1878 82.0045 29.7415 81.9856 29.2964Z" fill="#9997B1"/>
<path d="M81.968 29.3013C81.5107 17.9608 71.8987 8.90131 60.0967 8.90131C48.0012 8.90131 38.197 18.4196 38.197 30.1616C38.1957 35.0577 39.9359 39.7977 43.1121 43.5496H77.0848C80.1458 39.9195 81.8727 35.3684 81.9833 30.6402C81.9912 30.1935 81.9861 29.7472 81.968 29.3013Z" fill="#9896B1"/>
<path d="M81.9491 29.307C81.4941 17.9677 71.8797 8.9093 60.086 8.9093C47.9952 8.9093 38.1958 18.4241 38.1958 30.1614C38.1944 35.0579 39.9355 39.7982 43.1132 43.5494H77.0588C80.1207 39.9215 81.8486 35.3718 81.9597 30.6447C81.9707 30.198 81.9672 29.7521 81.9491 29.307Z" fill="#9795B0"/>
<path d="M81.9316 29.3117C81.4789 17.9747 71.8669 8.91754 60.0767 8.91754C47.9907 8.91754 38.1936 18.4277 38.1936 30.1627C38.1931 35.0592 39.9355 39.7993 43.1145 43.5495H77.0366C80.0993 39.9235 81.8288 35.3755 81.9422 30.6495C81.9516 30.2028 81.9481 29.7568 81.9316 29.3117Z" fill="#9694AF"/>
<path d="M81.9175 29.32C81.4684 17.9854 71.8588 8.92932 60.0709 8.92932C47.9849 8.92582 38.189 18.4324 38.189 30.1616C38.1887 35.0595 39.9334 39.8004 43.1158 43.5496H77.0154C80.0783 39.9253 81.8086 35.379 81.9234 30.6542C81.9344 30.2083 81.9324 29.7636 81.9175 29.32Z" fill="#9593AF"/>
<path d="M81.8939 29.3199C81.446 17.9888 71.8423 8.93274 60.0568 8.93274C47.9802 8.93274 38.189 18.437 38.189 30.1604C38.1878 35.0586 39.9321 39.8 43.1146 43.5495H76.9942C80.0579 39.9274 81.7892 35.3825 81.9045 30.6588C81.9132 30.2129 81.9096 29.7666 81.8939 29.3199Z" fill="#9592AE"/>
<path d="M81.8762 29.3268C81.433 17.9968 71.8293 8.9408 60.0461 8.9408C47.9719 8.9408 38.189 18.4404 38.189 30.1603C38.1877 35.0589 39.9329 39.8006 43.117 43.5494H76.973C80.0367 39.9289 81.7688 35.3857 81.8856 30.6634C81.8966 30.2175 81.8935 29.7719 81.8762 29.3268Z" fill="#9492AD"/>
<path d="M81.8574 29.3327C81.4166 18.0027 71.8163 8.94904 60.0367 8.94904C47.9719 8.94904 38.189 18.4451 38.189 30.1603C38.1882 35.0595 39.9348 39.8015 43.1205 43.5494H76.9482C80.0124 39.9309 81.7453 35.3892 81.8633 30.6681C81.8774 30.2222 81.8751 29.7774 81.8574 29.3327Z" fill="#9391AD"/>
<path d="M81.8385 29.3372C81.4012 18.0143 71.8033 8.95709 60.0261 8.95709C47.9636 8.95709 38.189 18.4497 38.189 30.1602C38.1882 35.0598 39.9357 39.802 43.1229 43.5493H76.9305C79.9951 39.9331 81.7289 35.3934 81.8479 30.6738C81.8586 30.2267 81.8562 29.7867 81.8385 29.3372Z" fill="#9290AC"/>
<path d="M81.8206 29.342C81.3857 18.019 71.7902 8.96533 60.0153 8.96533C47.9587 8.96533 38.1887 18.4533 38.1887 30.1591C38.1866 35.0591 39.9338 39.802 43.1214 43.5494H76.9091C79.974 39.935 81.7086 35.3969 81.8289 30.6786C81.8407 30.2326 81.8371 29.7867 81.8206 29.342Z" fill="#918FAB"/>
<path d="M81.7994 29.3479C81.368 18.025 71.7807 8.97363 60.0035 8.97363C47.9528 8.97363 38.1887 18.4639 38.1887 30.1592C38.1862 35.0597 39.9344 39.8029 43.1238 43.5495H76.8867C79.9526 39.9372 81.6885 35.4007 81.81 30.6834C81.8218 30.2374 81.8183 29.7869 81.7994 29.3479Z" fill="#908EAB"/>
<path d="M81.7841 29.3524C81.355 18.0295 71.7654 8.98163 59.9964 8.98163C47.9481 8.98163 38.1816 18.4637 38.1816 30.1591C38.1803 35.0607 39.9316 39.8045 43.125 43.5493H76.8655C79.9319 39.939 81.6687 35.404 81.7911 30.6879C81.8029 30.2427 81.8006 29.7976 81.7841 29.3524Z" fill="#908DAA"/>
<path d="M81.7651 29.3573C81.3385 18.0344 71.7465 8.98883 59.9857 8.98883C47.9421 8.98883 38.1804 18.4663 38.1804 30.1593C38.1807 35.0619 39.9345 39.8059 43.1308 43.5495H76.8489C79.9162 39.9414 81.6539 35.4078 81.7769 30.6927C81.7856 30.2445 81.7816 29.7993 81.7651 29.3573Z" fill="#8F8DA9"/>
<path d="M81.7465 29.363C81.328 18.0459 71.7384 8.99683 59.9765 8.99683C47.9376 8.99683 38.1782 18.4708 38.1782 30.1579C38.1776 35.061 39.9315 39.8057 43.1286 43.5494H76.8232C79.8905 39.9429 81.6291 35.411 81.7535 30.6972C81.7653 30.2513 81.763 29.8066 81.7465 29.363Z" fill="#8E8CA9"/>
<path d="M81.7287 29.3678C81.3079 18.053 71.7254 9.00861 59.9658 9.00861C47.9316 9.00861 38.177 18.4755 38.177 30.158C38.1754 35.0613 39.9295 39.8063 43.1274 43.5495H76.8019C79.8699 39.945 81.6097 35.4147 81.7358 30.702C81.7476 30.2576 81.7452 29.8129 81.7287 29.3678Z" fill="#8D8BA8"/>
<path d="M81.7098 29.3736C81.2926 18.06 71.7124 9.00861 59.9552 9.00861C47.9257 9.00861 38.1758 18.4744 38.1758 30.1534C38.1736 35.0567 39.9277 39.8019 43.1262 43.5448H76.7771C79.8452 39.9428 81.5858 35.415 81.7134 30.7043C81.7275 30.2615 81.7263 29.8179 81.7098 29.3736Z" fill="#8C8AA8"/>
<path d="M81.6909 29.3782C81.2772 18.0681 71.6994 9.02136 59.9457 9.02136C47.9233 9.02136 38.1746 18.4836 38.1746 30.1579C38.1735 35.0621 39.9298 39.8076 43.1309 43.5494H76.7594C79.8283 39.9477 81.5698 35.4199 81.698 30.7089C81.7098 30.2661 81.7074 29.8225 81.6909 29.3782Z" fill="#8C89A7"/>
<path d="M81.6732 29.383C81.2606 18.0752 71.6863 9.02966 59.935 9.02966C47.9126 9.02966 38.1721 18.4849 38.1721 30.1581C38.1715 35.0628 39.9292 39.8085 43.1319 43.5495H76.7369C79.8062 39.9522 81.5497 35.4285 81.6814 30.7207C81.6916 30.2732 81.6889 29.8273 81.6732 29.383Z" fill="#8B89A6"/>
<path d="M81.6545 29.3886C81.2455 18.082 71.6736 9.03766 59.9258 9.03766C47.9105 9.03766 38.1711 18.4929 38.1711 30.1567C38.1715 35.0631 39.9322 39.8097 43.1392 43.5493H76.7159C79.7883 39.9534 81.534 35.4293 81.6663 30.7205C81.6722 30.2758 81.671 29.8322 81.6545 29.3886Z" fill="#8A88A6"/>
<path d="M81.6368 29.3933C81.2301 18.089 71.6629 9.04462 59.9151 9.04462C47.9045 9.04462 38.1699 18.4999 38.1699 30.1567C38.1703 35.0632 39.9315 39.81 43.1392 43.5493H76.6946C79.7663 39.9547 81.512 35.4323 81.645 30.7252C81.6545 30.2808 81.6517 29.8368 81.6368 29.3933Z" fill="#8987A5"/>
<path d="M81.6179 29.398C81.21 18.096 71.6475 9.05286 59.9056 9.05286C47.8997 9.05286 38.1675 18.5011 38.1675 30.1567C38.168 35.0637 39.9301 39.8106 43.1391 43.5494H76.6733C79.7443 39.9562 81.49 35.4355 81.6237 30.7299C81.6355 30.2863 81.6332 29.8416 81.6179 29.398Z" fill="#8886A4"/>
<path d="M81.5992 29.404C81.1996 18.1032 71.6347 9.06116 59.8952 9.06116C47.894 9.06116 38.1665 18.5059 38.1665 30.1557C38.166 35.0634 39.9287 39.8111 43.1393 43.5495H76.6523C79.723 39.958 81.4688 35.4389 81.6027 30.7347C81.6168 30.2911 81.6145 29.8475 81.5992 29.404Z" fill="#8886A4"/>
<path d="M81.5815 29.4085C81.1831 18.1135 71.6217 9.06915 59.8857 9.06915C47.8893 9.06915 38.1653 18.5092 38.1653 30.1555C38.1644 35.0635 39.9276 39.8115 43.1393 43.5493H76.6311C79.701 39.9597 81.4468 35.4426 81.5815 30.7404C81.5972 30.296 81.5972 29.852 81.5815 29.4085Z" fill="#8785A3"/>
<path d="M81.5638 29.4132C81.1677 18.1136 71.6088 9.07745 59.8763 9.07745C47.8846 9.07745 38.1653 18.514 38.1653 30.1557C38.1637 35.0637 39.927 39.812 43.1393 43.5494H76.6134C79.6828 39.9613 81.4286 35.4459 81.5638 30.7452C81.5787 30.3008 81.5787 29.8568 81.5638 29.4132Z" fill="#8684A3"/>
<path d="M81.5436 29.4192C81.1523 18.1254 71.5957 9.08569 59.8656 9.08569C47.8786 9.08569 38.1616 18.5188 38.1616 30.1557C38.16 35.0644 39.9247 39.8131 43.1391 43.5495H76.5885C79.6607 39.9642 81.4094 35.4502 81.5472 30.7499C81.5582 30.3055 81.557 29.862 81.5436 29.4192Z" fill="#8583A2"/>
<path d="M81.5259 29.4238C81.1369 18.1323 71.5827 9.09265 59.8549 9.09265C47.8726 9.09265 38.1604 18.5222 38.1604 30.1545C38.1583 35.0639 39.9235 39.8132 43.1391 43.5495H76.5661C79.6393 39.9662 81.3897 35.4539 81.5294 30.7545C81.5428 30.3109 81.5416 29.8674 81.5259 29.4238Z" fill="#8582A1"/>
<path d="M81.5072 29.4283C81.1218 18.1392 71.5699 9.10065 59.8457 9.10065C47.8681 9.10065 38.1582 18.5267 38.1582 30.1543C38.1561 35.0641 39.9223 39.8136 43.1393 43.5493H76.545C79.6188 39.968 81.3701 35.4572 81.5108 30.759C81.5233 30.3154 81.5222 29.8719 81.5072 29.4283Z" fill="#8482A1"/>
<path d="M81.4883 29.4366C81.1052 18.1487 71.558 9.11133 59.835 9.11133C47.8621 9.11133 38.157 18.5339 38.157 30.1569C38.1569 35.0668 39.9256 39.8157 43.1451 43.5495H76.5238C79.5984 39.9703 81.3506 35.4609 81.4918 30.7639C81.5052 30.3203 81.504 29.8779 81.4883 29.4366Z" fill="#8381A0"/>
<path d="M81.4706 29.4366C81.0922 18.1534 71.545 9.11719 59.8256 9.11719C47.8562 9.11719 38.1558 18.5351 38.1558 30.1545C38.1549 35.0657 39.9246 39.8159 43.1462 43.5495H76.5025C79.5771 39.972 81.3301 35.4643 81.4729 30.7685C81.4859 30.325 81.4847 29.8826 81.4706 29.4366Z" fill="#8280A0"/>
<path d="M81.4517 29.4435C81.0745 18.1602 71.532 9.12518 59.8149 9.12518C47.8538 9.12518 38.1545 18.5396 38.1545 30.1532C38.1534 35.0652 39.9241 39.8161 43.1474 43.5493H76.4813C79.5561 39.9736 81.3099 35.4676 81.4541 30.7731C81.467 30.3295 81.467 29.8871 81.4517 29.4435Z" fill="#817F9F"/>
<path d="M81.4342 29.4495C81.0594 18.1674 71.5192 9.13824 59.8045 9.13824C47.8457 9.13824 38.1536 18.5491 38.1536 30.1581C38.1538 35.0689 39.9253 39.818 43.1487 43.5495H76.4602C79.5358 39.9759 81.2905 35.4713 81.4354 30.7779C81.446 30.3355 81.446 29.8919 81.4342 29.4495Z" fill="#817F9E"/>
<path d="M81.4153 29.4541C81.044 18.1755 71.5062 9.14282 59.795 9.14282C47.8409 9.14282 38.1511 18.549 38.1511 30.1545C38.1504 35.0671 39.9234 39.8181 43.1498 43.5494H76.4378C79.5143 39.978 81.2704 35.4749 81.4164 30.7825C81.4306 30.3401 81.4294 29.9035 81.4153 29.4541Z" fill="#807E9E"/>
<path d="M81.3964 29.46C81.0274 18.1825 71.4956 9.14868 59.7843 9.14868C47.835 9.14868 38.1499 18.5526 38.1499 30.1533C38.149 35.0668 39.9229 39.8184 43.151 43.5495H76.4165C79.4933 39.9797 81.2501 35.4783 81.3975 30.7872C81.4117 30.3452 81.4113 29.9028 81.3964 29.46Z" fill="#7F7D9D"/>
<path d="M81.3786 29.4647C81.0121 18.1896 71.4778 9.15344 59.7749 9.15344C47.8303 9.15344 38.1487 18.5538 38.1487 30.1488C38.1468 35.0642 39.9216 39.8179 43.1521 43.5495H76.3905C79.4676 39.9816 81.2253 35.4819 81.3739 30.792C81.3912 30.3499 81.3928 29.9075 81.3786 29.4647Z" fill="#7E7D9D"/>
<path d="M81.3597 29.4693C80.9966 18.1965 71.4671 9.16498 59.7642 9.16498C47.8243 9.16498 38.1462 18.5607 38.1462 30.1521C38.1453 35.0669 39.9215 39.8196 43.1532 43.5494H76.3774C79.4551 39.9839 81.2137 35.486 81.3632 30.7977C81.375 30.3572 81.3738 29.9144 81.3597 29.4693Z" fill="#7E7C9C"/>
<path d="M81.3409 29.4752C80.9814 18.2036 71.4543 9.17322 59.7583 9.17322C47.8232 9.17322 38.1487 18.5654 38.1487 30.1522C38.1467 35.0672 39.9231 39.8202 43.1557 43.5495H76.3528C79.4306 39.9858 81.19 35.4895 81.3409 30.8024C81.355 30.3588 81.355 29.9164 81.3409 29.4752Z" fill="#7D7B9B"/>
<path d="M81.328 29.4797C80.9744 18.2105 71.446 9.18127 59.7489 9.18127C47.8185 9.18127 38.1487 18.57 38.1487 30.1521C38.1461 35.0674 39.923 39.8207 43.1568 43.5494H76.3316C79.4111 39.9878 81.1733 35.4934 81.328 30.807C81.339 30.3642 81.339 29.9217 81.328 29.4797Z" fill="#7C7A9B"/>
<path d="M81.3044 29.4845C80.9508 18.2175 71.4283 9.18951 59.7348 9.18951C47.809 9.18951 38.1416 18.5736 38.1416 30.151C38.141 35.0677 39.9209 39.8216 43.158 43.5494H76.3104C79.3887 39.9892 81.1502 35.4964 81.3044 30.8117C81.3201 30.3697 81.3201 29.9273 81.3044 29.4845Z" fill="#7B7A9A"/>
<path d="M81.2866 29.4904C80.933 18.2258 71.4153 9.19775 59.7241 9.19775C47.8031 9.19775 38.1404 18.5783 38.1404 30.1511C38.1393 35.0683 39.9202 39.8226 43.1591 43.5495H76.2891C79.3678 39.9911 81.1301 35.4999 81.2854 30.8164C81.2996 30.3705 81.2996 29.9328 81.2866 29.4904Z" fill="#7B799A"/>
<path d="M81.2677 29.495C80.9141 18.2327 71.4023 9.20471 59.7146 9.20471C47.7983 9.20471 38.145 18.5829 38.145 30.151C38.1443 35.0686 39.926 39.8231 43.1661 43.5495H76.2666C79.3453 39.9944 81.1088 35.5066 81.2665 30.8257C81.2807 30.3786 81.2807 29.9374 81.2677 29.495Z" fill="#7A7899"/>
<path d="M81.2492 29.4995C80.9039 18.2396 71.3897 9.21277 59.7044 9.21277C47.7928 9.21277 38.1348 18.5863 38.1348 30.1509C38.1348 35.0694 39.9188 39.8242 43.1618 43.5493H76.2458C79.3267 39.9955 81.0913 35.5071 81.248 30.8256C81.2622 30.3844 81.2633 29.9419 81.2492 29.4995Z" fill="#797899"/>
<path d="M81.2313 29.5054C80.8883 18.2467 71.3765 9.22101 59.6947 9.22101C47.7902 9.22101 38.1357 18.591 38.1357 30.1498C38.1348 35.0688 39.9189 39.8244 43.1628 43.5494H76.2244C79.3064 39.996 81.0719 35.5075 81.229 30.8257C81.2443 30.3891 81.2443 29.9467 81.2313 29.5054Z" fill="#787798"/>
<path d="M81.2103 29.5102C80.872 18.2538 71.3637 9.22925 59.6843 9.22925C47.7798 9.22925 38.1348 18.5958 38.1348 30.1499C38.1338 35.0693 39.9189 39.8251 43.1641 43.5495H76.2033C79.2843 39.9998 81.0505 35.5156 81.2103 30.8374C81.2256 30.3938 81.2256 29.9526 81.2103 29.5102Z" fill="#787698"/>
<path d="M81.1938 29.5157C80.8567 18.2605 71.3507 9.24182 59.6749 9.24182C47.7703 9.24182 38.1335 18.6037 38.1335 30.1543C38.1341 35.0725 39.9199 39.8265 43.1653 43.5492H76.1821C79.2646 40.0003 81.0318 35.5158 81.1914 30.8371C81.204 30.3975 81.2048 29.957 81.1938 29.5157Z" fill="#777697"/>
<path d="M81.176 29.5204C80.8413 18.2675 71.3377 9.24182 59.6642 9.24182C47.7714 9.24182 38.1311 18.6037 38.1311 30.1496C38.1302 35.0701 39.9176 39.8265 43.1664 43.5492H76.1608C79.243 40.0027 81.011 35.5207 81.1725 30.8442C81.1882 30.4029 81.1894 29.9617 81.176 29.5204Z" fill="#767596"/>
<path d="M81.1571 29.5254C80.8259 18.2748 71.3247 9.25378 59.6535 9.25378C47.7655 9.25378 38.1299 18.6086 38.1299 30.1487C38.1291 35.0699 39.9173 39.827 43.1675 43.5495H76.1419C79.2249 40.005 80.9942 35.5246 81.1571 30.8491C81.1697 30.4094 81.1697 29.9682 81.1571 29.5254Z" fill="#757496"/>
<path d="M81.1392 29.5312C80.8104 18.2829 71.3092 9.26074 59.6404 9.26074C47.7571 9.26074 38.125 18.6121 38.125 30.1487C38.1243 35.0703 39.9135 39.8275 43.165 43.5495H76.1169C79.2008 40.0071 80.971 35.5281 81.1345 30.8537C81.1502 30.414 81.1518 29.9732 81.1392 29.5312Z" fill="#757395"/>
<path d="M81.1205 29.5357C80.794 18.2898 71.2998 9.2688 59.6334 9.2688C47.7548 9.2688 38.1274 18.6167 38.1274 30.1486C38.1265 35.0709 39.9171 39.8286 43.171 43.5493H76.0958C79.1797 40.009 80.951 35.5322 81.117 30.8595C81.1327 30.4182 81.1339 29.977 81.1205 29.5357Z" fill="#747395"/>
<path d="M81.1015 29.5405C80.7786 18.2969 71.2868 9.27704 59.6239 9.27704C47.75 9.27704 38.125 18.6214 38.125 30.1486C38.1242 35.0715 39.9162 39.8296 43.172 43.5494H76.0745C79.1585 40.0108 80.9306 35.5357 81.098 30.8642C81.1129 30.4229 81.1141 29.9817 81.1015 29.5405Z" fill="#737294"/>
<path d="M81.0841 29.5464C80.7635 18.304 71.274 9.28528 59.6135 9.28528C47.7443 9.28528 38.124 18.6238 38.124 30.1475C38.123 35.0712 39.916 39.8299 43.1734 43.5495H76.0582C79.143 40.013 80.9161 35.5393 81.0841 30.8689C81.0923 30.4277 81.0923 29.9876 81.0841 29.5464Z" fill="#727194"/>
<path d="M81.0651 29.5533C80.7481 18.3132 71.261 9.29572 59.604 9.29572C47.7395 9.29572 38.1228 18.6342 38.1228 30.1498C38.1227 35.073 39.9165 39.831 43.1746 43.5494H76.0322C79.1171 40.0146 80.891 35.5427 81.0604 30.8735C81.0757 30.4335 81.0781 29.9922 81.0651 29.5533Z" fill="#727193"/>
<path d="M81.0462 29.5533C80.7386 18.3179 71.248 9.30157 59.5933 9.30157C47.7336 9.30157 38.1204 18.6401 38.1204 30.1475C38.1192 35.0723 39.9145 39.8317 43.1757 43.5494H76.011C79.0962 40.0165 80.871 35.5461 81.0415 30.8782C81.0568 30.4381 81.0592 29.9969 81.0462 29.5533Z" fill="#717093"/>
<path d="M81.0287 29.5616C80.7164 18.325 71.2352 9.30981 59.5841 9.30981C47.729 9.30981 38.1194 18.639 38.1194 30.1476C38.1189 35.0726 39.915 39.8321 43.177 43.5495H75.9899C79.0758 40.0186 80.8514 35.5497 81.0228 30.883C81.0385 30.4433 81.0405 30.0028 81.0287 29.5616Z" fill="#706F92"/>
<path d="M81.0097 29.5662C80.7009 18.3331 71.2268 9.31677 59.5733 9.31677C47.723 9.31677 38.1216 18.6425 38.1216 30.1463C38.1198 35.0718 39.9156 39.8319 43.1781 43.5495H75.9674C79.0542 40.0206 80.8311 35.5533 81.0039 30.8876C81.0204 30.4475 81.0215 30.0074 81.0097 29.5662Z" fill="#706F92"/>
<path d="M80.991 29.5719C80.6857 18.34 71.2081 9.32483 59.564 9.32483C47.7184 9.32483 38.1123 18.647 38.1123 30.1462C38.113 35.0733 39.9131 39.8339 43.1806 43.5493H75.9475C79.0344 40.0222 80.8121 35.5566 80.9863 30.8921C81.002 30.4517 81.0036 30.0116 80.991 29.5719Z" fill="#6F6E91"/>
<path d="M80.9744 29.5767C80.6703 18.3471 71.1914 9.33307 59.5533 9.33307C47.7124 9.33307 38.1145 18.6517 38.1145 30.1463C38.1144 35.0735 39.9147 39.8343 43.1828 43.5494H75.925C79.0127 40.0244 80.7913 35.5602 80.9661 30.8969C80.9826 30.458 80.985 30.0202 80.9744 29.5767Z" fill="#6E6E91"/>
<path d="M80.9543 29.5814C80.6549 18.3541 71.1831 9.34131 59.5438 9.34131C47.7064 9.34131 38.1133 18.6553 38.1133 30.1464C38.1128 35.0737 39.9131 39.8346 43.1815 43.5495H75.906C78.9945 40.0266 80.7741 35.5639 80.9496 30.9016C80.9661 30.4627 80.9676 30.0226 80.9543 29.5814Z" fill="#6D6D90"/>
<path d="M80.9368 29.5871C80.6386 18.361 71.1704 9.34937 59.5334 9.34937C47.7019 9.34937 38.1123 18.6599 38.1123 30.1463C38.1107 35.0737 39.9112 39.8351 43.1806 43.5494H75.8827C78.9713 40.0282 80.7517 35.5672 80.9286 30.9062C80.945 30.4712 80.9478 30.0315 80.9368 29.5871Z" fill="#6D6C90"/>
<path d="M80.9179 29.5918C80.6208 18.368 71.1573 9.3587 59.5227 9.3587C47.696 9.3587 38.1099 18.6657 38.1099 30.1463C38.1095 35.0746 39.9121 39.8361 43.184 43.5494H75.8614C78.9502 40.0298 80.7318 35.5706 80.9108 30.9108C80.9273 30.4727 80.9297 30.033 80.9179 29.5918Z" fill="#6C6C8F"/>
<path d="M80.899 29.5965C80.6078 18.3751 71.1443 9.36456 59.5132 9.36456C47.6912 9.36456 38.1086 18.6681 38.1086 30.1428C38.1074 35.0727 39.911 39.8359 43.1852 43.5494H75.8401C78.9296 40.0319 80.7121 35.5742 80.8919 30.9155C80.9084 30.4766 80.9107 30.0377 80.899 29.5965Z" fill="#6B6B8F"/>
<path d="M80.8812 29.6024C80.5925 18.3833 71.1313 9.3728 59.5026 9.3728C47.6853 9.3728 38.1074 18.6728 38.1074 30.151C38.1068 35.0808 39.9118 39.8434 43.1875 43.5553H75.8177C78.9083 40.04 80.6921 35.5837 80.873 30.9261C80.8895 30.4872 80.8919 30.0425 80.8812 29.6024Z" fill="#6A6A8E"/>
<path d="M80.8625 29.6069C80.5761 18.3902 71.1185 9.38086 59.4933 9.38086C47.6807 9.38086 38.1052 18.6774 38.1052 30.1451C38.1047 35.0754 39.9111 39.8384 43.1888 43.5493H75.7966C78.8877 40.0363 80.6731 35.5822 80.8566 30.926C80.8708 30.4871 80.8743 30.047 80.8625 29.6069Z" fill="#6A6A8E"/>
<path d="M80.8436 29.6117C80.5608 18.3973 71.1055 9.3891 59.4827 9.3891C47.6748 9.3891 38.104 18.6809 38.104 30.144C38.1033 35.0751 39.9106 39.8388 43.1899 43.5494H75.7754C78.8665 40.0382 80.652 35.5855 80.8354 30.9307C80.8566 30.4872 80.8566 30.0517 80.8436 29.6117Z" fill="#69698D"/>
<path d="M80.8259 29.6176C80.5454 18.4043 71.0925 9.39734 59.4732 9.39734C47.67 9.39734 38.1028 18.6857 38.1028 30.144C38.1022 35.0756 39.9104 39.8395 43.1911 43.5495H75.7541C78.8453 40.04 80.6316 35.589 80.8165 30.9355C80.833 30.4966 80.8361 30.0573 80.8259 29.6176Z" fill="#68688D"/>
<path d="M80.807 29.6221C80.53 18.4159 71.0795 9.4054 59.4625 9.4054C47.6641 9.4054 38.1016 18.6902 38.1016 30.1439C38.1005 35.076 39.9097 39.8403 43.1922 43.5494H75.7329C78.8252 40.0428 80.6136 35.5943 80.8011 30.9424C80.8153 30.5011 80.8176 30.0622 80.807 29.6221Z" fill="#68688C"/>
<path d="M80.7893 29.6269C80.5147 18.4206 71.0665 9.41364 59.4555 9.41364C47.6617 9.41364 38.1016 18.6938 38.1016 30.1428C38.1004 35.0755 39.9101 39.8403 43.1934 43.5494H75.7116C78.8047 40.0433 80.5932 35.5946 80.7799 30.9424C80.7972 30.5051 80.8003 30.0666 80.7893 29.6269Z" fill="#67678C"/>
<path d="M80.7706 29.6327C80.4983 18.4264 71.0537 9.42059 59.4426 9.42059C47.656 9.42059 38.0981 18.6984 38.0981 30.1428C38.0974 35.0762 39.9089 39.8414 43.1947 43.5494H75.6905C78.7825 40.0454 80.571 35.5992 80.7588 30.9494C80.7777 30.512 80.7816 30.0731 80.7706 29.6327Z" fill="#66678B"/>
<path d="M80.7518 29.6374C80.4831 18.4312 71.0408 9.42883 59.4332 9.42883C47.6466 9.42883 38.0994 18.7032 38.0994 30.1428C38.0978 35.0764 39.9094 39.8419 43.1959 43.5495H75.6706C78.7623 40.0471 80.5508 35.6025 80.7388 30.9541C80.7577 30.5168 80.762 30.0779 80.7518 29.6374Z" fill="#65668B"/>
<path d="M80.7388 29.6431C80.4724 18.4369 71.0337 9.43689 59.4273 9.43689C47.6477 9.43689 38.0994 18.7065 38.0994 30.1427C38.0981 35.0765 39.9101 39.842 43.1971 43.5493H75.647C78.7422 40.0485 80.5333 35.6034 80.7223 30.954C80.7404 30.519 80.7459 30.082 80.7388 29.6431Z" fill="#65658A"/>
<path d="M80.715 29.6479C80.4522 18.4475 71.0158 9.44513 59.413 9.44513C47.6369 9.44513 38.0933 18.7113 38.0933 30.1428C38.0929 35.0776 39.9076 39.8436 43.1981 43.5494H75.6255C78.7199 40.0515 80.5122 35.61 80.7044 30.9634C80.7225 30.5261 80.726 30.0875 80.715 29.6479Z" fill="#64658A"/>
<path d="M80.6964 29.6527C80.4371 18.4547 71.003 9.45819 59.4026 9.45819C47.6324 9.45819 38.0923 18.7208 38.0923 30.1465C38.0923 35.0806 39.908 39.8456 43.1995 43.5496H75.6045C78.6996 40.0537 80.4927 35.6138 80.6858 30.9683C80.7035 30.5306 80.707 30.0928 80.6964 29.6527Z" fill="#636489"/>
<path d="M80.6787 29.6584C80.4205 18.4615 70.99 9.46387 59.3931 9.46387C47.6265 9.46387 38.0911 18.7218 38.0911 30.144C38.0906 35.0793 39.9073 39.8455 43.2006 43.5495H75.5833C78.6789 40.0556 80.4729 35.6171 80.6669 30.9728C80.6846 30.5362 80.6881 30.0973 80.6787 29.6584Z" fill="#626389"/>
<path d="M80.6597 29.6629C80.4051 18.4637 70.977 9.47534 59.3824 9.47534C47.6181 9.47534 38.0886 18.724 38.0886 30.1368C38.087 35.0753 39.9056 39.8446 43.2029 43.5493H75.562C78.6577 40.0571 80.4525 35.6203 80.6479 30.9773C80.6656 30.5407 80.6703 30.1018 80.6597 29.6629Z" fill="#626388"/>
<path d="M80.6419 29.6699C80.385 18.4753 70.9639 9.47534 59.3717 9.47534C47.6181 9.47534 38.0874 18.7286 38.0874 30.1368C38.0859 35.0757 39.9054 39.8452 43.204 43.5493H75.5407C78.6365 40.0592 80.4322 35.6245 80.629 30.9831C80.6467 30.5454 80.6514 30.1076 80.6419 29.6699Z" fill="#616288"/>
<path d="M80.6207 29.6701C80.3744 18.4826 70.9557 9.48492 59.3623 9.48492C47.611 9.48492 38.0862 18.7324 38.0862 30.1464C38.0866 35.0826 39.9069 39.8487 43.2051 43.5495H75.5183C78.615 40.0616 80.412 35.6284 80.6101 30.988C80.6282 30.5499 80.6317 30.1106 80.6207 29.6701Z" fill="#606287"/>
<path d="M80.6044 29.6781C80.3592 18.4906 70.9393 9.49292 59.3518 9.49292C47.6052 9.49292 38.084 18.7369 38.084 30.1404C38.0835 35.0791 39.9052 39.8478 43.2065 43.5494H75.5019C78.5993 40.0635 80.3972 35.6318 80.5961 30.9925C80.6103 30.5548 80.6138 30.1171 80.6044 29.6781Z" fill="#606187"/>
<path d="M80.5867 29.6829C80.3427 18.4977 70.9216 9.50116 59.3424 9.50116C47.6005 9.50116 38.0828 18.7416 38.0828 30.137C38.0815 35.0773 39.9042 39.8476 43.2076 43.5494H75.476C78.5732 40.0651 80.3719 35.6352 80.5725 30.9973C80.5914 30.5607 80.5961 30.1226 80.5867 29.6829Z" fill="#5F6086"/>
<path d="M80.5678 29.6886C80.332 18.5045 70.9121 9.50922 59.3317 9.50922C47.5946 9.50922 38.0815 18.745 38.0815 30.1403C38.0808 35.08 39.9044 39.8492 43.2087 43.5493H75.4547C78.5527 40.067 80.3522 35.6386 80.5536 31.0018C80.5725 30.5653 80.5772 30.1275 80.5678 29.6886Z" fill="#5E6086"/>
<path d="M80.5489 29.6933C80.3131 18.5116 70.8991 9.51746 59.3222 9.51746C47.5898 9.51746 38.0803 18.7498 38.0803 30.1392C38.0793 35.0797 39.9039 39.8497 43.2099 43.5494H75.4346C78.5332 40.0691 80.3337 35.6422 80.5359 31.0066C80.554 30.57 80.5583 30.1322 80.5489 29.6933Z" fill="#5D5F85"/>
<path d="M80.5312 29.6993C80.2955 18.5188 70.8862 9.52576 59.3152 9.52576C47.5875 9.52576 38.0815 18.7546 38.0815 30.1394C38.0802 35.0799 39.9048 39.85 43.2111 43.5495H75.4123C78.511 40.071 80.3123 35.6457 80.5159 31.0114C80.5348 30.5748 80.5407 30.137 80.5312 29.6993Z" fill="#5D5F85"/>
<path d="M80.5125 29.7039C80.2767 18.5256 70.8733 9.53265 59.2965 9.53265C47.5735 9.53265 38.071 18.7544 38.071 30.1393C38.0718 35.0815 39.9009 39.8521 43.2124 43.5494H75.39C78.4914 40.0736 80.2961 35.6499 80.503 31.0159C80.5172 30.5793 80.5219 30.1428 80.5125 29.7039Z" fill="#5C5E84"/>
<path d="M80.4948 29.7084C80.2673 18.5325 70.8604 9.54071 59.287 9.54071C47.5687 9.54071 38.071 18.7625 38.071 30.1392C38.0716 35.0816 39.9012 39.8525 43.2136 43.5493H75.3688C78.4691 40.0748 80.2729 35.6527 80.4795 31.0205C80.4952 30.587 80.5003 30.1497 80.4948 29.7084Z" fill="#5B5D84"/>
<path d="M80.4759 29.7143C80.2496 18.5408 70.8474 9.54895 59.287 9.54895C47.5687 9.54895 38.071 18.7672 38.071 30.1369C38.0709 35.0804 39.901 39.8524 43.2147 43.5493H75.3476C78.4482 40.0767 80.2529 35.6562 80.4606 31.0252C80.4795 30.5898 80.4842 30.1521 80.4759 29.7143Z" fill="#5A5D83"/>
<path d="M80.4571 29.7191C80.2343 18.5479 70.838 9.55725 59.2717 9.55725C47.5628 9.55725 38.071 18.7709 38.071 30.137C38.0705 35.0808 39.9011 39.8531 43.2159 43.5495H75.3264C78.4276 40.0789 80.2332 35.6599 80.4418 31.03C80.4606 30.5946 80.4665 30.1569 80.4571 29.7191Z" fill="#5A5C83"/>
<path d="M80.4394 29.7236C80.219 18.5547 70.8215 9.56525 59.2623 9.56525C47.557 9.56525 38.071 18.7754 38.071 30.1368C38.07 35.0809 39.9012 39.8535 43.2171 43.5493H75.3051C78.4072 40.0808 80.2137 35.6633 80.4229 31.0345C80.4418 30.5995 80.4473 30.1625 80.4394 29.7236Z" fill="#595C82"/>
<path d="M80.4205 29.7295C80.2037 18.5618 70.8085 9.57349 59.2517 9.57349C47.5522 9.57349 38.071 18.7801 38.071 30.1369C38.0708 35.0814 39.9037 39.8538 43.2218 43.5482H75.2816C78.3838 40.0815 80.1911 35.6656 80.4017 31.0381C80.4241 30.6038 80.4288 30.1673 80.4205 29.7295Z" fill="#585B82"/>
<path d="M80.4017 29.7343C80.1872 18.5689 70.7956 9.58179 59.2423 9.58179C47.5463 9.58179 38.071 18.7849 38.071 30.137C38.0706 35.0823 39.9044 39.8554 43.2242 43.5495H75.2627C78.3652 40.0846 80.1733 35.6703 80.3852 31.044C80.4052 30.604 80.4099 30.1721 80.4017 29.7343Z" fill="#585B81"/>
<path d="M80.3852 29.7389C80.1718 18.5806 70.7838 9.59222 59.2316 9.59222C47.5416 9.59222 38.071 18.7883 38.071 30.137C38.0688 35.0821 39.902 39.8556 43.2218 43.5494H75.2415C78.3441 40.0867 80.1531 35.6745 80.3663 31.0498C80.3867 30.6148 80.393 30.1778 80.3852 29.7389Z" fill="#575A81"/>
<path d="M80.3651 29.7448C80.1565 18.5806 70.7708 9.59222 59.221 9.59222C47.5357 9.59222 38.071 18.793 38.071 30.137C38.0704 35.0831 39.9062 39.8568 43.2289 43.5494H75.2191C78.3218 40.0902 80.1321 35.6812 80.3474 31.0591C80.3679 30.621 80.3738 30.1829 80.3651 29.7448Z" fill="#565980"/>
<path d="M80.3474 29.7493C80.1411 18.591 70.7578 9.60498 59.2116 9.60498C47.531 9.60498 38.0627 18.7976 38.0627 30.1369C38.0624 35.0836 39.8996 39.8576 43.2241 43.5493H75.199C78.303 40.0906 80.1141 35.6815 80.3297 31.0591C80.3494 30.624 80.3553 30.1875 80.3474 29.7493Z" fill="#555980"/>
<path d="M80.3285 29.7541C80.1258 18.5981 70.7448 9.61328 59.2009 9.61328C47.525 9.61328 38.0615 18.8012 38.0615 30.1359C38.0607 35.0834 39.8988 39.8582 43.2253 43.5495H75.1765C78.2821 40.0915 80.0942 35.6821 80.3096 31.0592C80.3297 30.6285 80.3368 30.1931 80.3285 29.7541Z" fill="#555880"/>
<path d="M80.3096 29.7598C80.1092 18.6049 70.7318 9.62128 59.1914 9.62128C47.5226 9.62128 38.0603 18.8057 38.0603 30.1357C38.0596 35.0837 39.8986 39.8587 43.2264 43.5493H75.1553C78.2596 40.0949 80.0729 35.69 80.2919 31.0707C80.312 30.633 80.3178 30.1975 80.3096 29.7598Z" fill="#54587F"/>
<path d="M80.2919 29.7646C80.0938 18.6121 70.7199 9.62958 59.1807 9.62958C47.5119 9.62958 38.0579 18.8105 38.0579 30.1358C38.0579 35.0843 39.8982 39.8594 43.2275 43.5494H75.134C78.238 40.0951 80.0501 35.6899 80.2671 31.0708C80.293 30.6389 80.2989 30.2023 80.2919 29.7646Z" fill="#53577F"/>
<path d="M80.2732 29.7703C80.0787 18.619 70.706 9.63647 59.1692 9.63647C47.5098 9.63647 38.0569 18.8139 38.0569 30.1369C38.0571 35.0854 39.8984 39.8604 43.2289 43.5493H75.113C78.2184 40.0979 80.0333 35.6954 80.2543 31.0777C80.2744 30.6435 80.2803 30.2069 80.2732 29.7703Z" fill="#53577E"/>
<path d="M80.2543 29.7751C80.0634 18.6261 70.693 9.64478 59.1562 9.64478C47.5003 9.64478 38.0557 18.814 38.0557 30.137C38.055 35.0868 39.8973 39.863 43.23 43.5518H75.0918C78.1977 40.1024 80.0136 35.7014 80.2355 31.0849C80.2555 30.6483 80.2673 30.2129 80.2543 29.7751Z" fill="#52567E"/>
<path d="M80.2365 29.7796C80.048 18.6329 70.6799 9.65277 59.1514 9.65277C47.4991 9.65277 38.0532 18.8232 38.0532 30.1345C38.053 35.0849 39.8967 39.8613 43.2311 43.5493H75.0693C78.1762 40.102 79.9933 35.7025 80.2165 31.087C80.2369 30.6528 80.2436 30.217 80.2365 29.7796Z" fill="#51557D"/>
<path d="M80.2176 29.7869C80.0314 18.6413 70.6704 9.66235 59.1407 9.66235C47.4931 9.66235 38.052 18.8281 38.052 30.1359C38.0536 35.0874 39.9003 39.8642 43.2381 43.5507H75.048C78.155 40.1051 79.973 35.7073 80.1976 31.0931C80.218 30.6581 80.2247 30.2227 80.2176 29.7869Z" fill="#50557D"/>
<path d="M80.1999 29.7868C80.016 18.6448 70.6527 9.66583 59.1312 9.66583C47.4884 9.66583 38.0508 18.8281 38.0508 30.1312C38.0512 35.083 39.898 39.8601 43.2369 43.546H75.0267C78.135 40.1029 79.954 35.7063 80.1787 31.0931C80.1999 30.6619 80.207 30.2265 80.1999 29.7868Z" fill="#50547C"/>
<path d="M80.1813 29.7949C80.0009 18.6552 70.6411 9.67737 59.1208 9.67737C47.4827 9.67737 38.0498 18.8361 38.0498 30.1334C38.0487 35.0858 39.8957 39.8639 43.2359 43.5494H75.0057C78.1142 40.1079 79.9339 35.7131 80.1601 31.1011C80.1813 30.6684 80.1884 30.233 80.1813 29.7949Z" fill="#4F547C"/>
<path d="M80.1623 29.8008C79.9855 18.6623 70.6281 9.68561 59.1113 9.68561C47.4767 9.68561 38.0474 18.8397 38.0474 30.137C38.0462 35.0894 39.8933 39.8674 43.2335 43.5529H74.9844C78.0932 40.1134 79.9138 35.7201 80.1411 31.1093C80.1623 30.6743 80.1694 30.2381 80.1623 29.8008Z" fill="#4E537C"/>
<path d="M80.1492 29.8054C79.9748 18.6692 70.6197 9.69257 59.1053 9.69257C47.4766 9.69257 38.0508 18.8443 38.0508 30.1334C38.0484 35.086 39.8956 39.8645 43.2369 43.5494H74.9631C78.0722 40.1121 79.8937 35.7208 80.1221 31.1116C80.1402 30.6774 80.1492 30.242 80.1492 29.8054Z" fill="#4D537B"/>
<path d="M80.1257 29.8101C79.9536 18.6763 70.6021 9.70081 59.09 9.70081C47.466 9.70081 38.0449 18.8491 38.0449 30.1288C38.0432 35.0842 39.8936 39.8648 43.2393 43.5494H74.9454C78.0548 40.114 79.8771 35.7243 80.1068 31.1164C80.1245 30.6821 80.1328 30.2537 80.1257 29.8101Z" fill="#4D527B"/>
<path d="M80.107 29.8158C79.9385 18.6831 70.5893 9.7088 59.0808 9.7088C47.4615 9.7088 38.0439 18.8524 38.0439 30.1368C38.0445 35.0898 39.8956 39.8673 43.2407 43.5493H74.9197C78.0302 40.1159 79.8541 35.7279 80.0858 31.1209C80.107 30.6882 80.1141 30.2532 80.107 29.8158Z" fill="#4C527A"/>
<path d="M80.0893 29.8206C79.9231 18.6903 70.5763 9.7171 59.0713 9.7171C47.4555 9.7171 38.0415 18.8572 38.0415 30.1323C38.0411 35.0874 39.8936 39.8672 43.2418 43.5494H74.8984C78.0096 40.1183 79.8341 35.7315 80.0657 31.1257C80.0881 30.6926 80.0952 30.2537 80.0893 29.8206Z" fill="#4B517A"/>
<path d="M80.0703 29.8253C79.9136 18.6973 70.5632 9.72534 59.0606 9.72534C47.4508 9.72534 38.0403 18.8619 38.0403 30.1323C38.0397 35.088 39.8932 39.868 43.2429 43.5495H74.8771C77.9883 40.1198 79.814 35.735 80.048 31.1304C80.0692 30.6973 80.0762 30.2631 80.0703 29.8253Z" fill="#4B5079"/>
<path d="M80.0527 29.8311C79.8924 18.7054 70.5503 9.7334 59.0512 9.7334C47.446 9.7334 38.0403 18.8653 38.0403 30.1322C38.0397 35.0881 39.8937 39.8683 43.2441 43.5494H74.8559C77.968 40.1218 79.7954 35.7386 80.0315 31.135C80.0511 30.703 80.0582 30.2684 80.0527 29.8311Z" fill="#4A5079"/>
<path d="M80.0315 29.8358C79.8735 18.7125 70.535 9.74164 59.0383 9.74164C47.4378 9.74164 38.0344 18.87 38.0344 30.1323C38.0352 35.0892 39.8919 39.8697 43.2453 43.5494H74.8336C77.9452 40.1234 79.7725 35.7418 80.0091 31.1397C80.0311 30.7047 80.0385 30.27 80.0315 29.8358Z" fill="#494F78"/>
<path d="M80.015 29.8416C79.8606 18.7194 70.5244 9.7486 59.0348 9.7486C47.4343 9.7486 38.0356 18.8747 38.0356 30.1369C38.0337 35.0964 39.8906 39.88 43.2465 43.561H74.8136C77.9254 40.1368 79.7536 35.7569 79.9914 31.156C80.0127 30.7124 80.0209 30.277 80.015 29.8416Z" fill="#484F78"/>
<path d="M79.9974 29.8463C79.8453 18.7265 70.5127 9.75684 59.0171 9.75684C47.4261 9.75684 38.0369 18.8782 38.0369 30.1312C38.035 35.091 39.8928 39.8749 43.2501 43.5553H74.7924C77.907 40.1339 79.7382 35.7554 79.9785 31.1549C79.9974 30.7191 80.0037 30.2829 79.9974 29.8463Z" fill="#484E78"/>
<path d="M79.9785 29.8509C79.83 18.7334 70.4997 9.76489 59.0101 9.76489C47.4238 9.76489 38.0298 18.8828 38.0298 30.131C38.0284 35.0915 39.8876 39.8756 43.2466 43.5552H74.7712C77.8851 40.1352 79.7163 35.7584 79.9573 31.1594C79.9778 30.7236 79.9848 30.2875 79.9785 29.8509Z" fill="#474E77"/>
<path d="M79.9597 29.8571C79.8147 18.7407 70.4868 9.77924 59.0007 9.77924C47.4191 9.77924 38.031 18.8936 38.031 30.1372C38.0294 35.0981 39.8895 39.8826 43.2501 43.5613H74.7488C77.863 40.1434 79.6943 35.7679 79.935 31.1703C79.9577 30.7306 79.966 30.2929 79.9597 29.8571Z" fill="#464D77"/>
<path d="M79.942 29.8616C79.7982 18.7476 70.4738 9.78375 58.99 9.78375C47.4132 9.78375 38.0298 18.8888 38.0298 30.1324C38.0312 35.0922 39.8943 39.8743 43.2572 43.5495H74.7276C77.8415 40.1332 79.6728 35.7593 79.9137 31.1631C79.9385 30.7312 79.9479 30.2982 79.942 29.8616Z" fill="#464C76"/>
<path d="M79.9231 29.8661C79.7828 18.7556 70.4608 9.78833 58.9805 9.78833C47.4072 9.78833 38.0286 18.8934 38.0286 30.1288C38.0288 35.09 39.8925 39.8738 43.2571 43.5494H74.7063C77.8195 40.1345 79.6508 35.7623 79.8925 31.1677C79.9196 30.737 79.929 30.3027 79.9231 29.8661Z" fill="#454C76"/>
<path d="M79.9042 29.872C79.7674 18.7627 70.4477 9.79419 58.9699 9.79419C47.4024 9.79419 38.0261 18.8992 38.0261 30.1265C38.0254 35.089 39.8902 39.8741 43.257 43.5494H74.685C77.7997 40.138 79.6339 35.7688 79.8794 31.1759C79.9022 30.7424 79.9105 30.3078 79.9042 29.872Z" fill="#444B75"/>
<path d="M79.8864 29.8766C79.7521 18.7696 70.4347 9.79877 58.9604 9.79877C47.3965 9.79877 38.0249 18.9038 38.0249 30.1241C38.0236 35.0876 39.8889 39.8738 43.257 43.5494H74.6638C77.7799 40.1387 79.6146 35.7691 79.8593 31.1758C79.8829 30.7462 79.8911 30.312 79.8864 29.8766Z" fill="#434B75"/>
<path d="M79.8675 29.8813C79.7367 18.7767 70.4217 9.81287 58.9497 9.81287C47.3917 9.81287 38.0237 18.9086 38.0237 30.1241C38.0222 35.0876 39.888 39.8736 43.257 43.5483H74.6425C77.757 40.1414 79.5929 35.7768 79.8416 31.1876C79.864 30.751 79.8734 30.3179 79.8675 29.8813Z" fill="#434A75"/>
<path d="M79.85 29.8872C79.7203 18.7837 70.4089 9.82568 58.9393 9.82568C47.3883 9.82568 38.0215 18.9179 38.0215 30.137C38.0236 35.0967 39.89 39.878 43.2571 43.5494H74.6203C77.7375 40.1435 79.5748 35.7779 79.8229 31.1876C79.8449 30.7556 79.8539 30.3222 79.85 29.8872Z" fill="#424A74"/>
<path d="M79.831 29.8918C79.7049 18.7907 70.3958 9.82568 58.9332 9.82568C47.3823 9.82568 38.0237 18.9132 38.0237 30.1253C38.021 35.089 39.8869 39.8754 43.257 43.5494H74.5989C77.7174 40.144 79.5556 35.7783 79.8039 31.1876C79.8263 30.7615 79.8357 30.3272 79.831 29.8918Z" fill="#414974"/>
<path d="M79.8122 29.9034C79.6943 18.8034 70.3829 9.84308 58.9192 9.84308C47.3753 9.84308 38.019 18.9271 38.019 30.1345C38.0194 35.0957 39.887 39.8786 43.257 43.5493H74.5742C77.6919 40.1468 79.5308 35.7846 79.7816 31.1968C79.8087 30.766 79.8169 30.333 79.8122 29.9034Z" fill="#404973"/>
<path d="M79.7956 29.9034C79.6778 18.8058 70.3663 9.84546 58.9097 9.84546C47.3705 9.84546 38.0166 18.926 38.0166 30.1276C38.0163 35.0929 39.8866 39.8798 43.2617 43.5517H74.5565C77.6749 40.1514 79.5147 35.7906 79.7662 31.2038C79.7897 30.7719 79.7996 30.3385 79.7956 29.9034Z" fill="#404873"/>
<path d="M79.7758 29.9035C79.6579 18.814 70.3571 9.85022 58.8992 9.85022C47.3648 9.85022 38.0156 18.9273 38.0156 30.1241C38.0147 35.0901 39.8861 39.8774 43.2631 43.5483H74.5354C77.6538 40.1496 79.4945 35.7905 79.7475 31.2051C79.7711 30.7755 79.7805 30.3417 79.7758 29.9035Z" fill="#3F4772"/>
<path d="M79.7568 29.9128C79.6389 18.8233 70.344 9.86066 58.8944 9.86066C47.3647 9.86066 38.019 18.9342 38.019 30.1276C38.0183 35.0939 39.8906 39.8815 43.2688 43.5517H74.5141C77.6328 40.1549 79.4743 35.7974 79.7285 31.2132C79.7521 30.7813 79.7615 30.3478 79.7568 29.9128Z" fill="#3E4772"/>
<path d="M79.7392 29.9175C79.6272 18.828 70.3311 9.8689 58.8768 9.8689C47.3518 9.8689 38.0144 18.9389 38.0144 30.1276C38.0139 35.0944 39.8871 39.8821 43.2665 43.5518H74.4918C77.6108 40.1568 79.4532 35.8009 79.7085 31.2179C79.7333 30.786 79.7439 30.3529 79.7392 29.9175Z" fill="#3E4672"/>
<path d="M79.7203 29.9221C79.6119 18.8326 70.3181 9.87695 58.8697 9.87695C47.3494 9.87695 38.0073 18.9435 38.0073 30.1264C38.0066 35.094 39.8817 39.8823 43.2642 43.5505H74.4717C77.5913 40.1575 79.4346 35.8032 79.6909 31.2213C79.7144 30.7906 79.7251 30.3575 79.7203 29.9221Z" fill="#3D4671"/>
<path d="M79.7025 29.928C79.5964 18.8385 70.305 9.88519 58.8589 9.88519C47.3434 9.88519 38.0095 18.9471 38.0095 30.1264C38.0089 35.0945 39.8849 39.883 43.2687 43.5506H74.4492C77.5721 40.1602 79.4188 35.8069 79.6777 31.2249C79.6966 30.7953 79.706 30.3622 79.7025 29.928Z" fill="#3C4571"/>
<path d="M79.6838 29.9327C79.5813 18.8432 70.2922 9.89343 58.8497 9.89343C47.3389 9.89343 38.0085 18.9518 38.0085 30.1265C38.0082 35.0949 39.8851 39.8836 43.2701 43.5506H74.4282C77.5495 40.1619 79.3949 35.8105 79.6532 31.2308C79.6779 30.8 79.6874 30.3705 79.6838 29.9327Z" fill="#3B4570"/>
<path d="M79.665 29.9373C79.56 18.856 70.2792 9.90149 58.8391 9.90149C47.3329 9.90149 38.0073 18.9564 38.0073 30.1264C38.0071 35.0952 39.8849 39.8842 43.2713 43.5505H74.4069C77.5287 40.164 79.3754 35.8148 79.6355 31.2365C79.6591 30.8046 79.6697 30.3704 79.665 29.9373Z" fill="#3B4470"/>
<path d="M79.6472 29.9431C79.5493 18.8629 70.2662 9.90845 58.8296 9.90845C47.327 9.90845 38.0049 18.9598 38.0049 30.1252C38.0044 35.0947 39.8837 39.8841 43.2723 43.5493H74.3891C77.511 40.1645 79.3585 35.817 79.62 31.24C79.6401 30.8104 79.6507 30.3773 79.6472 29.9431Z" fill="#3A4470"/>
<path d="M79.6284 29.9478C79.5341 18.87 70.2486 9.91669 58.8155 9.91669C47.3188 9.91669 38.0002 18.9645 38.0002 30.1252C38.0001 35.0952 39.8803 39.8847 43.2701 43.5494H74.3645C77.4867 40.1665 79.3351 35.8205 79.5977 31.2447C79.6213 30.8151 79.6319 30.3821 79.6284 29.9478Z" fill="#39436F"/>
<path d="M79.6096 29.9526C79.5188 18.8771 70.2404 9.92493 58.8156 9.92493C47.3224 9.92493 38.0085 18.9693 38.0085 30.1253C38.0085 35.0956 39.8896 39.8854 43.2807 43.5494H74.3433C77.4659 40.1684 79.3151 35.824 79.5789 31.2494C79.6041 30.8191 79.6143 30.3868 79.6096 29.9526Z" fill="#38436F"/>
<path d="M79.5919 29.9583C79.5035 18.884 70.2285 9.93298 58.799 9.93298C47.3117 9.93298 38.0002 18.9727 38.0002 30.1275C38.0003 35.0985 39.8829 39.8886 43.276 43.5517H74.322C77.4455 40.1719 79.2956 35.8282 79.56 31.254C79.5852 30.8244 79.5958 30.3925 79.5919 29.9583Z" fill="#38426E"/>
<path d="M79.573 29.9629C79.4869 18.891 70.2155 9.94232 58.7895 9.94232C47.3058 9.94232 37.999 18.9785 37.999 30.1252C37.9991 35.0966 39.8826 39.887 43.2771 43.5493H74.2996C77.4234 40.1722 79.2748 35.831 79.5411 31.2587C79.5663 30.8291 79.5769 30.3972 79.573 29.9629Z" fill="#37426E"/>
<path d="M79.5601 29.9687C79.4764 18.8979 70.2074 9.94928 58.7838 9.94928C47.3059 9.94928 38.0027 18.982 38.0027 30.124C38.0027 35.0958 39.8871 39.8865 43.2831 43.5481H74.2821C77.4066 40.1732 79.2589 35.8334 79.526 31.2621C79.5472 30.8372 79.5601 30.403 79.5601 29.9687Z" fill="#36416E"/>
<path d="M79.5363 29.9735C79.4562 18.905 70.1895 9.95752 58.7682 9.95752C47.295 9.95752 37.9954 18.9855 37.9954 30.1241C37.9956 35.0965 39.8815 39.8875 43.2793 43.5482H74.2559C77.3807 40.175 79.2338 35.8368 79.5021 31.2669C79.5281 30.8373 79.5399 30.4077 79.5363 29.9735Z" fill="#35416D"/>
<path d="M79.5176 29.9781C79.4422 18.9131 70.1767 9.96448 58.759 9.96448C47.2905 9.96448 37.9944 18.9902 37.9944 30.124C37.995 35.0968 39.8817 39.888 43.2807 43.5481H74.236C77.3611 40.1767 79.215 35.8402 79.4846 31.2715C79.5094 30.8442 79.5212 30.4123 79.5176 29.9781Z" fill="#35406D"/>
<path d="M79.4999 29.984C79.4257 18.9202 70.1637 9.97272 58.7483 9.97272C47.2846 9.97272 37.9932 18.9949 37.9932 30.1229C37.9937 35.0962 39.8814 39.8876 43.2818 43.547H74.2148C77.3399 40.1783 79.1948 35.8442 79.4657 31.2774C79.4917 30.849 79.5023 30.4171 79.4999 29.984Z" fill="#34406C"/>
<path d="M79.481 29.9887C79.4091 18.9273 70.1507 9.98096 58.7365 9.98096C47.2775 9.98096 37.9919 18.9985 37.9919 30.123C37.9919 35.097 39.8811 39.889 43.2842 43.5471H74.1935C77.3172 40.1795 79.1712 35.8471 79.4421 31.2821C79.4728 30.8537 79.4834 30.423 79.481 29.9887Z" fill="#333F6C"/>
<path d="M79.462 29.9933C79.3937 18.9306 70.1376 9.98901 58.7281 9.98901C47.2739 9.98901 37.9895 19.003 37.9895 30.1229C37.9902 35.0974 39.8807 39.8895 43.2852 43.547H74.1663C77.291 40.1825 79.1478 35.8533 79.4231 31.2902C79.4538 30.8583 79.4656 30.4275 79.462 29.9933Z" fill="#333F6C"/>
<path d="M79.4422 29.9992C79.3786 18.9412 70.1308 9.99725 58.7189 9.99725C47.2646 9.99725 37.9885 19.0078 37.9885 30.1229C37.9891 35.0979 39.8805 39.8904 43.2866 43.5471H74.15C77.2768 40.1836 79.1349 35.854 79.4104 31.2903C79.4352 30.8642 79.4422 30.4323 79.4422 29.9992Z" fill="#323E6B"/>
<path d="M79.4257 30.0038C79.3632 18.9481 70.1142 10.0053 58.7083 10.0053C47.2634 10.0053 37.9873 19.0111 37.9873 30.1216C37.9891 35.0975 39.8827 39.8902 43.2913 43.5458H74.1287C77.2577 40.1835 79.1169 35.8534 79.3915 31.289C79.4166 30.8656 79.428 30.4372 79.4257 30.0038Z" fill="#313E6B"/>
<path d="M79.4079 30.0085C79.3478 18.9552 70.0965 10.0135 58.6987 10.0135C47.2586 10.0135 37.9849 19.0159 37.9849 30.1217C37.9857 35.0977 39.8795 39.8908 43.2889 43.5458H74.1074C77.2342 40.188 79.0941 35.8637 79.3726 31.3042C79.3973 30.8735 79.4103 30.4427 79.4079 30.0085Z" fill="#303D6A"/>
<path d="M79.3893 30.0204C79.3315 18.9694 70.086 10.0266 58.6883 10.0266C47.2553 10.0266 37.9839 19.0266 37.9839 30.1278C37.9844 35.1038 39.8782 39.897 43.2879 43.5519H74.0864C77.2162 40.1934 79.0772 35.8665 79.3539 31.3044C79.3798 30.878 79.3916 30.45 79.3893 30.0204Z" fill="#303C6A"/>
<path d="M79.3704 30.0201C79.3162 18.9715 70.073 10.0298 58.6789 10.0298C47.2458 10.0298 37.9827 19.0252 37.9827 30.1228C37.9824 35.0991 39.8763 39.8925 43.2867 43.547H74.0652C77.1941 40.1914 79.0558 35.868 79.335 31.3088C79.3609 30.8828 79.3727 30.4532 79.3704 30.0201Z" fill="#2F3C6A"/>
<path d="M79.3527 30.0201C79.3008 18.9773 70.0601 10.0368 58.6682 10.0368C47.2422 10.0368 37.9814 19.0251 37.9814 30.1205C37.9823 35.0978 39.8789 39.8916 43.2925 43.5446H74.0439C77.1732 40.1909 79.0358 35.8691 79.3161 31.3111C79.3421 30.887 79.3542 30.4566 79.3527 30.0201Z" fill="#2E3B69"/>
<path d="M79.3337 30.0295C79.2854 18.9843 70.047 10.045 58.6587 10.045C47.2363 10.045 37.979 19.0334 37.979 30.1229C37.9803 35.1007 39.8783 39.8948 43.2936 43.547H74.0203C77.1497 40.195 79.013 35.8749 79.2948 31.3182C79.3243 30.8933 79.3361 30.4625 79.3337 30.0295Z" fill="#2D3B69"/>
<path d="M79.3148 30.0343C79.27 18.9915 70.034 10.0592 58.6481 10.0592C47.2315 10.0592 37.9778 19.0475 37.9778 30.1265C37.9792 35.1048 39.8781 39.8991 43.2947 43.5506H74.0002C77.1311 40.2012 78.9959 35.8823 79.2782 31.3265C79.3042 30.8981 79.3171 30.4674 79.3148 30.0343Z" fill="#2C3A68"/>
<path d="M79.2971 30.0401C79.2535 18.9985 70.021 10.0592 58.6386 10.0592C47.2256 10.0592 37.9766 19.0475 37.9766 30.1207C37.9775 35.0995 39.8774 39.8942 43.2959 43.5448H73.9789C77.1098 40.197 78.9754 35.8798 79.2594 31.3253C79.2865 30.9028 79.2983 30.4732 79.2971 30.0401Z" fill="#2B3A68"/>
<path d="M79.2784 30.0447C79.2383 19.0054 70.0129 10.0696 58.6281 10.0696C47.221 10.0696 37.9744 19.0462 37.9744 30.1194C37.9758 35.0988 39.8771 39.8937 43.2972 43.5435H73.9579C77.089 40.1975 78.9554 35.882 79.2407 31.3287C79.2678 30.9073 79.2796 30.4778 79.2784 30.0447Z" fill="#2B3968"/>
<path d="M79.2607 30.0493C79.2229 19.0135 69.9952 10.0765 58.6175 10.0765C47.2151 10.0765 37.9731 19.0497 37.9731 30.1193C37.9749 35.0993 39.8775 39.8946 43.2995 43.5435H73.9366C77.0685 40.1994 78.9361 35.8855 79.2229 31.3333C79.2489 30.9131 79.2618 30.487 79.2607 30.0493Z" fill="#2A3967"/>
<path d="M79.2418 30.0552C79.2064 19.0206 69.9833 10.0848 58.608 10.0848C47.2103 10.0848 37.9719 19.0544 37.9719 30.1194C37.9735 35.0999 39.8771 39.8954 43.3007 43.5435H73.9154C77.0469 40.203 78.9162 35.8931 79.2064 31.3439C79.23 30.9178 79.2429 30.4871 79.2418 30.0552Z" fill="#293867"/>
<path d="M79.2228 30.06C79.1922 19.0277 69.9691 10.0989 58.5961 10.0989C47.2032 10.0989 37.9695 19.0651 37.9695 30.1254C37.9712 35.1065 39.8762 39.9024 43.3018 43.5495H73.894C77.0264 40.209 78.8957 35.8985 79.1851 31.3487C79.211 30.9231 79.2236 30.4935 79.2228 30.06Z" fill="#283867"/>
<path d="M79.2063 30.0646C79.1768 19.0346 69.9585 10.1035 58.5891 10.1035C47.2008 10.1035 37.9695 19.0662 37.9695 30.1206C37.9698 35.1036 39.8754 39.9015 43.3029 43.5494H73.8728C77.0057 40.2109 78.8759 35.9019 79.1662 31.3533C79.193 30.9269 79.2063 30.4973 79.2063 30.0646Z" fill="#273766"/>
<path d="M79.1862 30.0705C79.1602 19.0417 69.9443 10.1094 58.5772 10.1094C47.2101 10.1094 37.967 19.0674 37.967 30.1183C37.9674 35.1026 39.8744 39.9017 43.304 43.5495H73.8503C76.9847 40.2135 78.8563 35.9057 79.1473 31.358C79.1748 30.9331 79.1877 30.5039 79.1862 30.0705Z" fill="#273766"/>
<path d="M79.1675 30.0752C79.1451 19.0488 69.9315 10.1141 58.568 10.1141C47.2045 10.1141 37.9661 19.0721 37.9661 30.1184C37.966 35.1032 39.874 39.9027 43.3054 43.5495H73.8329C76.9686 40.2161 78.8427 35.9105 79.1369 31.3639C79.1589 30.9351 79.1691 30.5056 79.1675 30.0752Z" fill="#263665"/>
<path d="M79.1498 30.0798C79.1298 19.0556 69.9185 10.1257 58.5573 10.1257C47.1961 10.1257 37.9636 19.0766 37.9636 30.1183C37.9641 35.1036 39.8734 39.9034 43.3065 43.5494H73.8081C76.9439 40.2179 78.8181 35.9137 79.1121 31.3685C79.138 30.942 79.1506 30.5124 79.1498 30.0798Z" fill="#253665"/>
<path d="M79.1309 30.0855C79.1144 19.0625 69.9054 10.1326 58.5478 10.1326C47.1902 10.1326 37.9624 19.08 37.9624 30.117C37.9627 35.1032 39.873 39.9036 43.3077 43.5493H73.7844C76.9195 40.2191 78.7936 35.9167 79.0884 31.373C79.1179 30.947 79.132 30.5174 79.1309 30.0855Z" fill="#243565"/>
<path d="M79.1134 30.0903C79.0981 19.0708 69.895 10.1409 58.5374 10.1409C47.1798 10.1409 37.9614 19.0848 37.9614 30.1171C37.9612 35.1038 39.8725 39.9047 43.309 43.5494H73.7658C76.9002 40.2207 78.7744 35.92 79.0698 31.3778C79.0989 30.9521 79.1134 30.523 79.1134 30.0903Z" fill="#243564"/>
<path d="M79.0944 30.0959C79.0886 19.0777 69.8796 10.1489 58.5279 10.1489C47.1762 10.1489 37.959 19.0893 37.959 30.117C37.9593 35.1042 39.8719 39.9053 43.3101 43.5493H73.7445C76.8787 40.2223 78.7529 35.923 79.0485 31.3823C79.0815 30.9539 79.0944 30.5279 79.0944 30.0959Z" fill="#233464"/>
<path d="M79.0756 30.1007C79.0674 19.0847 69.8667 10.1571 58.5173 10.1571C47.1679 10.1571 37.9531 19.0929 37.9531 30.117C37.9547 35.1054 39.87 39.9068 43.3113 43.5493H73.721C76.8572 40.2249 78.734 35.9272 79.032 31.3871C79.0627 30.9622 79.0768 30.5326 79.0756 30.1007Z" fill="#223464"/>
<path d="M79.0579 30.1055C79.0579 19.0919 69.8537 10.1654 58.5079 10.1654C47.162 10.1654 37.9531 19.0977 37.9531 30.1172C37.9548 35.1057 39.8706 39.9072 43.3125 43.5494H73.7009C76.8381 40.2271 78.7161 35.9309 79.0155 31.3919C79.0438 30.967 79.0579 30.5374 79.0579 30.1055Z" fill="#223363"/>
<path d="M79.0391 30.1111C79.0391 19.0987 69.8455 10.1734 58.4973 10.1734C47.1491 10.1734 37.9531 19.1022 37.9531 30.1158C37.9538 35.1051 39.8701 39.9075 43.3137 43.5493H73.6797C76.8171 40.2286 78.6963 35.9342 78.9978 31.3964C79.0253 30.9715 79.0391 30.543 79.0391 30.1111Z" fill="#213363"/>
<path d="M79.0202 30.1158C79.0202 19.1057 69.8266 10.1804 58.4867 10.1804C47.1467 10.1804 37.9531 19.1057 37.9531 30.1158C37.9535 35.1056 39.8708 39.9083 43.3161 43.5492H73.6585C77.1034 39.9082 79.0203 35.1055 79.0202 30.1158Z" fill="#002169"/>
<path d="M34.2756 21.0062V28.5645H42.0808V21.0062H34.2756Z" fill="#002169"/>
<path d="M1.91992 2.48322V43.5494H43.3159C40.1205 39.5665 38.1533 34.561 38.1533 29.1225C38.1533 16.1373 48.997 5.61045 62.3702 5.61045C75.7434 5.61045 86.5871 16.1373 86.5871 29.1225C86.588 34.3653 84.7892 39.4526 81.4858 43.5494H92.4297V2.48322H1.91992Z" fill="#002169"/>
<path d="M39.3995 25.9088H36.9573V23.6617H39.3995V25.9088Z" fill="#CE0E2D"/>
<path d="M15.1 35.6628H8.41699V23.6558H11.1008V33.5873H15.1V35.6628Z" fill="white"/>
<path d="M22.0188 33.3071C21.7107 33.7211 21.2 33.9288 20.4865 33.9304C20.1867 33.9391 19.8894 33.8733 19.6218 33.7392C19.3542 33.605 19.1247 33.4067 18.9542 33.1623C18.5658 32.6214 18.3663 31.9697 18.3861 31.3063C18.3861 30.5281 18.5433 29.8962 18.8576 29.4106C19.1719 28.925 19.6964 28.6822 20.4311 28.6822C20.7296 28.6741 21.025 28.7437 21.2879 28.884C21.5507 29.0243 21.7719 29.2304 21.9292 29.4818C22.2956 30.0196 22.488 30.6552 22.4808 31.3039C22.4808 32.223 22.3268 32.8899 22.0188 33.3047V33.3071ZM23.7208 28.0063C22.9153 27.1868 21.8211 26.7775 20.4382 26.7783C19.0552 26.779 17.9618 27.2222 17.1579 28.1078C16.359 28.9818 15.9276 30.1252 15.9522 31.3039C15.9522 32.6759 16.325 33.7732 17.0707 34.5958C17.8164 35.4183 18.9389 35.8304 20.4382 35.832C21.8306 35.832 22.9263 35.4226 23.7255 34.6039C24.5246 33.7853 24.9238 32.6853 24.923 31.3039C24.923 29.9234 24.5223 28.8234 23.7208 28.0039V28.0063Z" fill="white"/>
<path d="M31.6072 33.3912C31.3337 33.5134 31.0363 33.5744 30.7362 33.5698C30.1076 33.5698 29.6393 33.3267 29.3312 32.8403C29.0232 32.3539 28.8692 31.7313 28.8692 30.9726C28.8586 30.4375 29.0146 29.9121 29.3159 29.4679C29.6137 29.0337 30.1107 28.8165 30.8069 28.8165C31.1122 28.8014 31.4159 28.8692 31.685 29.0126C31.9001 29.144 32.0807 29.324 32.2119 29.5379V32.8963C32.0602 33.1127 31.8509 33.2833 31.6072 33.3889V33.3912ZM34.515 27.2582L34.0129 27.1017L32.6798 27.6165C32.3631 27.3485 31.9962 27.1446 31.6002 27.0165C30.8986 26.7894 30.146 26.7662 29.4316 26.9497C28.7171 27.1332 28.0708 27.5157 27.5691 28.0519C26.8061 28.8691 26.4254 29.9107 26.427 31.1768C26.427 32.5403 26.7527 33.6165 27.4041 34.4056C28.0555 35.1948 28.9753 35.5901 30.1634 35.5916C30.3615 35.5907 30.559 35.5696 30.7527 35.5286C30.9492 35.4922 31.1366 35.418 31.3043 35.3103L32.1483 34.7477V35.3418C32.1483 35.8913 31.94 36.2823 31.5236 36.515C31.1071 36.7477 30.2993 36.8644 29.1002 36.8652V38.2216L31.2065 38.2286C31.5958 38.1331 31.9739 37.9974 32.3345 37.8236C32.7277 37.6364 33.0917 37.3943 33.4153 37.1045C33.7514 36.8015 34.0238 36.4357 34.2168 36.0282C34.4245 35.5833 34.5284 35.0977 34.5209 34.6076V27.2582H34.515Z" fill="white"/>
<path d="M39.4029 35.6629H36.9607V27.2384L39.4029 27.2372V35.6629Z" fill="white"/>
<path d="M48.3042 32.7829C48.3042 33.702 47.9722 34.4413 47.3082 35.0008C46.6442 35.5604 45.8231 35.8394 44.8448 35.8378C44.2922 35.83 43.7408 35.784 43.1947 35.7001C42.6004 35.6228 42.0244 35.443 41.4927 35.1689V33.0549C41.9136 33.2883 42.3575 33.4784 42.8175 33.6222C43.3745 33.791 43.9548 33.8718 44.5372 33.8615C44.9252 33.8768 45.3119 33.8074 45.6699 33.6584C45.9551 33.523 46.0989 33.279 46.0989 32.9253C46.0989 32.6919 45.981 32.5086 45.7359 32.3662C45.4907 32.2238 45.0746 32.1246 44.4771 32.072C43.406 31.9849 42.6552 31.7269 42.2246 31.2981C41.794 30.8693 41.5787 30.2958 41.5787 29.5775C41.5732 29.1888 41.6603 28.8044 41.833 28.4553C42.0056 28.1063 42.2589 27.8025 42.5723 27.5685C43.2324 27.0409 44.0433 26.7775 45.0051 26.7783C45.4574 26.7818 45.9086 26.8208 46.3547 26.895C46.7693 26.955 47.1781 27.0491 47.5769 27.1763V29.3032C47.1747 29.1199 46.7539 28.9794 46.3217 28.8841C45.8775 28.7923 45.4247 28.7473 44.9709 28.7499C44.6545 28.733 44.3395 28.8021 44.0598 28.9495C43.8429 29.0825 43.7333 29.2366 43.7333 29.4164C43.7247 29.5594 43.7672 29.7009 43.8534 29.816C43.9396 29.9311 44.064 30.0123 44.2048 30.0456C44.5209 30.1491 44.8494 30.2111 45.1819 30.23C46.2231 30.2977 47.0049 30.5534 47.5274 30.9969C48.05 31.4405 48.3117 32.037 48.3124 32.7864L48.3042 32.7829Z" fill="white"/>
<path d="M54.1928 34.2047L52.4566 35.839C51.7306 35.5417 51.186 35.1071 50.823 34.5351C50.448 33.918 50.2595 33.2075 50.2796 32.4876V28.8024H49.4817V27.258H50.2796V24.4962L52.6865 24.3246V27.258H53.95V28.8024H52.6865V31.8082C52.6865 32.4082 52.8224 32.9067 53.0943 33.3036C53.366 33.7018 53.7472 34.0145 54.1928 34.2047Z" fill="white"/>
<path d="M58.4654 35.6627H56.0232V27.258L58.4654 27.2568V35.6627Z" fill="white"/>
<path d="M67.2513 34.9765C67.0776 35.1492 66.7633 35.3356 66.3083 35.5356C65.8534 35.7356 65.2774 35.8352 64.5804 35.8344C63.2697 35.8344 62.2089 35.4648 61.398 34.7255C60.5871 33.9862 60.1828 32.8632 60.1852 31.3566C60.1772 30.1747 60.623 29.0339 61.4322 28.1652C62.2628 27.2407 63.3236 26.7784 64.6146 26.7784C65.0993 26.7738 65.5831 26.8187 66.0584 26.9126C66.3972 26.9747 66.728 27.0734 67.045 27.2068V29.6944C66.7009 29.4452 66.3211 29.2485 65.9182 29.1107C65.5475 29.0023 65.1625 28.9496 64.7761 28.9543C64.1176 28.9543 63.6037 29.1586 63.2344 29.5671C62.865 29.9757 62.68 30.5936 62.6792 31.4208C62.6792 32.199 62.8984 32.7827 63.3369 33.1718C63.7609 33.5511 64.3143 33.7572 64.8857 33.7484C65.3431 33.7636 65.7988 33.6841 66.2235 33.515C66.5921 33.3546 66.9378 33.1466 67.2513 32.8963V34.9881V34.9765Z" fill="white"/>
<path d="M75.4949 32.7829C75.4949 33.702 75.1629 34.4413 74.4989 35.0008C73.8349 35.5604 73.0138 35.8394 72.0355 35.8378C71.4829 35.8302 70.9315 35.7842 70.3853 35.7001C69.7911 35.6226 69.2151 35.4428 68.6833 35.1689V33.0549C69.1058 33.2886 69.5513 33.4787 70.0129 33.6222C70.5699 33.791 71.1502 33.8718 71.7326 33.8615C72.1202 33.8768 72.5065 33.8075 72.8641 33.6584C73.1517 33.523 73.2955 33.2787 73.2955 32.9253C73.2955 32.6919 73.1745 32.5055 72.9325 32.3662C72.6904 32.2269 72.2704 32.1288 71.6725 32.072C70.6007 31.9849 69.851 31.7288 69.4236 31.3039C68.9922 30.8767 68.7788 30.3024 68.7788 29.5833C68.7712 29.1945 68.8564 28.8094 69.0274 28.4593C69.1984 28.1092 69.4505 27.804 69.763 27.5685C70.4246 27.0409 71.2356 26.7775 72.1958 26.7783C72.6473 26.7818 73.0978 26.8208 73.543 26.895C73.9584 26.9547 74.3681 27.0488 74.7676 27.1763V29.3032C74.3648 29.1213 73.9436 28.982 73.5112 28.8876C73.0662 28.7958 72.6126 28.7508 72.1581 28.7534C71.8421 28.7365 71.5274 28.8055 71.2481 28.953C71.0313 29.086 70.9228 29.2417 70.9228 29.4199C70.9136 29.562 70.955 29.7029 71.0399 29.8178C71.1248 29.9328 71.2477 30.0147 71.3872 30.0491C71.7034 30.1526 72.0319 30.2146 72.3643 30.2335C73.4047 30.3012 74.1866 30.5569 74.7099 31.0004C75.2332 31.444 75.4949 32.0405 75.4949 32.7899V32.7829Z" fill="white"/>
<path d="M15.2248 20.999L14.9431 19.2481H12.9653L12.6435 20.999H8.47925L11.3717 10.1617H16.7087L19.4102 20.999H15.2248ZM14.5953 16.9461L14.3337 14.7901C14.2252 14.1154 14.1545 13.4243 14.0649 12.7485H14.0261C13.9188 13.4243 13.828 14.1154 13.6854 14.7901L13.3507 16.9461H14.5953Z" fill="white"/>
<path d="M19.3301 20.999V10.1617H22.6586C27.9838 10.1617 29.1861 11.2753 29.1861 13.8411C29.1861 16.3193 28.3068 17.6547 23.3859 17.6547V20.999H19.3301ZM23.6911 12.4881L23.387 12.5033V15.3376C24.5221 15.3866 25.2317 14.8811 25.2317 13.9695C25.2317 13.1874 24.706 12.4881 23.6911 12.4881Z" fill="white"/>
<path d="M29.1296 20.999V10.1617H33.2668V18.4403H37.0149V20.999H29.1296Z" fill="white"/>
<path d="M94.8392 43.4852V41.8066H94.2393V41.4634H95.8493V41.8066H95.2529V43.4852H94.8392Z" fill="white"/>
<path d="M96.1074 43.4852V41.4634H96.7215L97.0928 42.8373L97.4558 41.4634H98.0781V43.4852H97.6963L97.6951 41.8918L97.2884 43.4852H96.8983L96.4964 41.8918L96.4893 43.4852H96.1074Z" fill="white"/>
<path d="M3.13178 55.6682L2.66031 57.0923H2.04858L3.59971 52.562H4.30691L5.86393 57.0923H5.23806L4.75009 55.6682H3.13178ZM4.62868 55.2106L4.18197 53.9067C4.07943 53.6102 4.01224 53.3417 3.94624 53.0802H3.93209C3.86491 53.3487 3.78947 53.6242 3.69636 53.8974L3.25436 55.2106H4.62868Z" fill="white"/>
<path d="M7.9524 54.7204C7.9524 54.3843 7.9524 54.1088 7.92529 53.8391H8.44744L8.47455 54.3632H8.49459C8.59288 54.1786 8.74129 54.0248 8.92309 53.9192C9.1049 53.8136 9.31287 53.7604 9.52357 53.7656C9.72781 53.7633 9.92754 53.8251 10.0942 53.9421C10.2608 54.0591 10.3858 54.2253 10.4512 54.4169H10.4653C10.5557 54.2522 10.6802 54.1082 10.8307 53.9944C11.0371 53.8346 11.2938 53.752 11.5556 53.7609C11.9882 53.7609 12.6317 54.0434 12.6317 55.1722V57.0877H12.0495V55.2516C12.0495 54.6259 11.8137 54.25 11.3423 54.25C11.1828 54.2563 11.0293 54.3113 10.9027 54.4074C10.7761 54.5036 10.6826 54.6362 10.6351 54.787C10.6041 54.8828 10.5882 54.9828 10.5879 55.0835V57.0924H10.0045V55.143C10.0045 54.6259 9.77462 54.25 9.32084 54.25C8.94838 54.25 8.67728 54.5453 8.58299 54.8407C8.54938 54.9335 8.533 55.0316 8.53466 55.1302V57.0924H7.9524V54.7204Z" fill="white"/>
<path d="M13.9318 55.5739C13.9448 56.3735 14.4599 56.7027 15.0563 56.7027C15.367 56.7123 15.6762 56.6553 15.9627 56.5358L16.0652 56.9583C15.7203 57.1011 15.3487 57.17 14.975 57.1603C13.966 57.1603 13.3625 56.5019 13.3625 55.5202C13.3625 54.5385 13.9448 53.7692 14.8948 53.7692C15.965 53.7692 16.2491 54.7031 16.2491 55.3019C16.2483 55.3941 16.2416 55.4861 16.2291 55.5774L13.9318 55.5739ZM15.6763 55.1502C15.6833 54.7743 15.5207 54.1895 14.8512 54.1895C14.2489 54.1895 13.9849 54.7404 13.9377 55.1502H15.6763Z" fill="white"/>
<path d="M16.9929 54.7205C16.9929 54.3843 16.9859 54.1088 16.9658 53.8392H17.4868L17.5139 54.3633H17.5339C17.6322 54.1786 17.7806 54.0248 17.9624 53.9192C18.1442 53.8136 18.3522 53.7604 18.5629 53.7656C18.7672 53.7633 18.9669 53.8251 19.1335 53.9421C19.3001 54.0591 19.4251 54.2253 19.4905 54.417H19.5047C19.5951 54.2522 19.7196 54.1082 19.8701 53.9944C20.0766 53.8348 20.3331 53.7522 20.5949 53.7609C21.0275 53.7609 21.6711 54.0434 21.6711 55.1722V57.0878H21.0888V55.2516C21.0888 54.6259 20.859 54.25 20.3816 54.25C20.2221 54.256 20.0684 54.3109 19.9417 54.4071C19.815 54.5032 19.7216 54.636 19.6744 54.787C19.643 54.8828 19.6267 54.9828 19.6261 55.0835V57.0925H19.0438V55.143C19.0438 54.6259 18.814 54.25 18.3602 54.25C17.9877 54.25 17.7166 54.5454 17.6223 54.8407C17.5891 54.9336 17.5732 55.0317 17.5752 55.1302V57.0925H16.9929V54.7205Z" fill="white"/>
<path d="M22.6128 57.0923C22.6258 56.8705 22.6399 56.5414 22.6399 56.253V52.3157H23.2292V54.3585H23.2434C23.4532 53.9954 23.8327 53.7608 24.3608 53.7608C25.1729 53.7608 25.7492 54.4332 25.7422 55.4207C25.7422 56.5881 25.0043 57.1624 24.2724 57.1624C24.0496 57.1747 23.8279 57.1237 23.6334 57.0153C23.439 56.9069 23.2799 56.7457 23.175 56.5507H23.155L23.1279 57.0877L22.6128 57.0923ZM23.2281 55.7884C23.2303 55.8611 23.2394 55.9334 23.2552 56.0044C23.3047 56.2022 23.4197 56.3779 23.5819 56.5033C23.7441 56.6288 23.944 56.6969 24.1498 56.6966C24.7721 56.6966 25.1446 56.1923 25.1446 55.4464C25.1446 54.7939 24.8063 54.2359 24.1698 54.2359C23.9586 54.2399 23.7548 54.3135 23.5904 54.445C23.4261 54.5764 23.3106 54.7583 23.2622 54.962C23.2427 55.0412 23.2312 55.1221 23.2281 55.2036V55.7884Z" fill="white"/>
<path d="M26.8242 55.5739C26.8371 56.3735 27.3522 56.7027 27.9475 56.7027C28.2586 56.7124 28.5682 56.6554 28.855 56.5358L28.9564 56.9583C28.6115 57.1014 28.2399 57.1703 27.8661 57.1603C26.8572 57.1603 26.2549 56.5019 26.2549 55.5202C26.2549 54.5385 26.8371 53.7692 27.7872 53.7692C28.8574 53.7692 29.1414 54.7031 29.1414 55.3019C29.1406 55.3941 29.1339 55.4861 29.1214 55.5774L26.8242 55.5739ZM28.571 55.1502C28.578 54.7743 28.4154 54.1895 27.7459 54.1895C27.1436 54.1895 26.8796 54.7404 26.8324 55.1502H28.571Z" fill="white"/>
<path d="M29.884 54.8548C29.884 54.4719 29.884 54.1416 29.8569 53.8393H30.3791L30.3991 54.4778H30.4262C30.5747 54.0412 30.9342 53.7657 31.3338 53.7657C31.3906 53.7652 31.4473 53.7719 31.5024 53.7856V54.3435C31.4357 54.3295 31.3677 54.3229 31.2996 54.3237C30.88 54.3237 30.5818 54.64 30.5005 55.0836C30.484 55.1746 30.4749 55.2667 30.4734 55.3591V57.0926H29.884V54.8548Z" fill="white"/>
<path d="M36.4998 55.4394C36.4998 56.6429 35.6606 57.167 34.8673 57.167C33.981 57.167 33.2974 56.5215 33.2974 55.4931C33.2974 54.404 34.0152 53.7655 34.9216 53.7655C35.8633 53.7655 36.4998 54.4449 36.4998 55.4394ZM33.8997 55.4733C33.8997 56.1853 34.3122 56.7235 34.8945 56.7235C35.4767 56.7235 35.8904 56.1923 35.8904 55.4593C35.8904 54.9083 35.6123 54.2091 34.9086 54.2091C34.2049 54.2091 33.8997 54.8546 33.8997 55.4733Z" fill="white"/>
<path d="M37.312 57.0925V54.291H36.8523V53.8404H37.312V53.6863C37.312 53.2287 37.4133 52.812 37.6915 52.5505C37.9079 52.3504 38.1946 52.2419 38.4906 52.2482C38.6644 52.2476 38.8367 52.2793 38.9986 52.3416L38.9173 52.7992C38.798 52.7467 38.6683 52.7212 38.5378 52.7244C38.0298 52.7244 37.9013 53.168 37.9013 53.6665V53.8404H38.6934V54.291H37.9013V57.0925H37.312Z" fill="white"/>
<path d="M41.3818 52.9054V53.8393H42.2352V54.2898H41.3818V56.0408C41.3818 56.4447 41.4997 56.6723 41.8285 56.6723C41.9449 56.674 42.061 56.6606 42.1739 56.6327L42.201 57.0762C42.0314 57.1349 41.8524 57.1622 41.6729 57.1568C41.5539 57.1639 41.4347 57.1453 41.3236 57.1024C41.2125 57.0594 41.1121 56.9932 41.0294 56.9081C40.8597 56.733 40.7936 56.4412 40.7936 56.0607V54.2863H40.2856V53.8357H40.7936V53.056L41.3818 52.9054Z" fill="white"/>
<path d="M42.9036 52.3157H43.5V54.3456H43.5129C43.6139 54.1706 43.7615 54.0264 43.9396 53.9289C44.1245 53.8213 44.3346 53.7634 44.549 53.7608C44.9898 53.7608 45.6935 54.0293 45.6935 55.1522V57.0877H45.0982V55.22C45.0982 54.6947 44.9014 54.2511 44.3392 54.2511C44.1603 54.2549 43.9871 54.314 43.8438 54.4201C43.7005 54.5262 43.5943 54.6741 43.54 54.8429C43.5082 54.9336 43.4946 55.0295 43.5 55.1254V57.0877H42.9036V52.3157Z" fill="white"/>
<path d="M46.9946 55.5739C47.0087 56.3735 47.5226 56.7027 48.119 56.7027C48.4302 56.7123 48.7397 56.6553 49.0266 56.5358L49.128 56.9583C48.7831 57.1013 48.4115 57.1701 48.0377 57.1603C47.0288 57.1603 46.4253 56.5019 46.4253 55.5202C46.4253 54.5385 47.0087 53.7692 47.9635 53.7692C49.0325 53.7692 49.3177 54.7031 49.3177 55.3019C49.3167 55.3941 49.3096 55.4861 49.2965 55.5774L46.9946 55.5739ZM48.7414 55.1502C48.7485 54.7743 48.5858 54.1895 47.9163 54.1895C47.314 54.1895 47.05 54.7404 47.0028 55.1502H48.7414Z" fill="white"/>
<path d="M78.2517 56.8916C77.8015 57.0516 77.3274 57.1356 76.8491 57.1402C76.1584 57.1402 75.5903 56.9651 75.1436 56.5414C74.7499 56.1655 74.5071 55.5597 74.5071 54.8546C74.5071 53.5028 75.45 52.52 76.9823 52.52C77.3722 52.5107 77.7599 52.5815 78.1209 52.7277L77.9783 53.2052C77.6605 53.0675 77.316 53.0009 76.9693 53.0102C75.859 53.0102 75.1341 53.6966 75.1341 54.8324C75.1341 55.9682 75.8319 56.6604 76.8951 56.6604C77.1621 56.6758 77.4294 56.636 77.68 56.5437V55.1838H76.7524V54.7169H78.2517V56.8916Z" fill="white"/>
<path d="M79.1311 54.8548C79.1311 54.4719 79.124 54.1416 79.104 53.8393H79.6261L79.6462 54.4778H79.678C79.8265 54.0412 80.186 53.7657 80.5856 53.7657C80.6424 53.7652 80.699 53.7719 80.7541 53.7856V54.3435C80.6875 54.3295 80.6195 54.3229 80.5514 54.3237C80.1318 54.3237 79.8336 54.64 79.7523 55.0836C79.7352 55.1745 79.7261 55.2667 79.7252 55.3591V57.0926H79.1358L79.1311 54.8548Z" fill="white"/>
<path d="M84.3113 55.4394C84.3113 56.6429 83.4721 57.167 82.6789 57.167C81.7925 57.167 81.1089 56.5215 81.1089 55.4931C81.1089 54.404 81.8267 53.7655 82.7331 53.7655C83.6748 53.7655 84.3113 54.4449 84.3113 55.4394ZM81.7112 55.4733C81.7112 56.1853 82.1237 56.7235 82.706 56.7235C83.2882 56.7235 83.7019 56.1923 83.7019 55.4593C83.7019 54.9083 83.4238 54.2091 82.7201 54.2091C82.0165 54.2091 81.7112 54.8546 81.7112 55.4733Z" fill="white"/>
<path d="M87.8107 56.2053C87.8107 56.5415 87.8178 56.838 87.8378 57.0924H87.3039L87.2697 56.5625H87.2567C87.1465 56.7493 86.9881 56.9037 86.7977 57.0099C86.6074 57.1162 86.392 57.1704 86.1735 57.1671C85.6584 57.1671 85.042 56.8846 85.042 55.7418V53.8391H85.6384V55.6414C85.6384 56.259 85.8282 56.6757 86.3692 56.6757C86.539 56.6728 86.7043 56.6203 86.8441 56.5248C86.984 56.4292 87.0923 56.2949 87.1554 56.1387C87.191 56.0418 87.2094 55.9395 87.2096 55.8364V53.8391H87.8107V56.2053Z" fill="white"/>
<path d="M88.7937 54.9014C88.7937 54.4846 88.7796 54.1484 88.7666 53.8391H89.3017L89.3288 54.3971H89.343C89.4609 54.197 89.6316 54.0326 89.8368 53.9213C90.0419 53.8101 90.2738 53.7562 90.5075 53.7656C91.3007 53.7656 91.896 54.4309 91.896 55.4197C91.896 56.587 91.1782 57.1706 90.4061 57.1706C90.2077 57.179 90.0104 57.1363 89.8336 57.0467C89.6568 56.9571 89.5064 56.8237 89.3972 56.6593H89.3842V58.4278H88.7949L88.7937 54.9014ZM89.383 55.7687C89.3843 55.8499 89.3934 55.9308 89.4102 56.0103C89.4593 56.2081 89.574 56.3839 89.736 56.5094C89.898 56.6349 90.0979 56.7029 90.3036 56.7025C90.933 56.7025 91.2996 56.1924 91.2996 55.4465C91.2996 54.794 90.9542 54.236 90.3236 54.236C90.1127 54.2421 89.9099 54.3175 89.7469 54.4501C89.5839 54.5828 89.47 54.7654 89.4231 54.9691C89.3995 55.0476 89.386 55.1288 89.383 55.2107V55.7687Z" fill="white"/>
<path d="M55.4564 51.7533L53.481 57.6459L55.1547 56.9864L57.2598 50.8871L55.4564 51.7533Z" fill="white"/>
<path d="M66.0041 52.4907L64.5332 55.6892L64.4754 52.5468H62.9844L61.6702 55.8176L61.5452 52.5468H60.1851L60.5127 56.9744H62.3114L63.4229 54.3783L63.4417 56.9744H65.304L67.4834 52.4907H66.0041Z" fill="white"/>
<path d="M72.2935 53.4444L72.5905 52.4907H68.1245L66.9954 56.9744H71.4271L71.6475 55.9927H68.5653L68.794 55.1534L71.7807 55.1592L72.0342 54.265H68.9908L69.1853 53.4444H72.2935Z" fill="white"/>
<path d="M63.146 51.1741C65.7956 50.6569 68.2449 51.0317 69.5414 51.6153C69.644 51.6678 69.5002 51.5534 69.3976 51.4904C68.3722 50.8437 65.9288 50.0523 62.79 50.4503C60.4244 50.7165 57.941 51.6807 56.1282 54.2698C56.2979 54.5546 57.7783 56.9757 57.7783 56.9757H59.4284C59.4284 56.9757 58.1319 54.8114 57.7335 54.2103C58.7672 52.8865 60.7415 51.648 63.1554 51.1752" fill="white"/>
</svg>
